<svg width="28" height="27" viewBox="0 0 28 27" fill="none" xmlns="http://www.w3.org/2000/svg">
<path d="M23.7194 4.59998C23.1436 3.56376 22.313 2.68889 21.3037 2.0597C20.1925 1.36702 18.9094 0.999887 17.6 1L23.7194 4.59998ZM23.7194 4.59998H24.7999C24.7999 4.59998 24.7999 4.59998 24.7999 4.59998C25.1726 4.59997 25.5392 4.69463 25.8652 4.87507C26.1913 5.05552 26.4662 5.31586 26.6641 5.63165C26.8621 5.94744 26.9765 6.30833 26.9967 6.68046C27.017 7.0526 26.9424 7.42378 26.7799 7.75917L26.7651 7.78978L26.7482 7.81931L26.6666 7.9621L26.6494 7.9921L26.6303 8.02084L24.7686 10.8122C24.7685 10.8123 24.7684 10.8125 24.7683 10.8126C24.7477 10.8437 24.7363 10.8798 24.7352 10.9169L24.7437 10.995L24.9066 11.8887L24.9066 11.889C26.2034 19.0191 20.8316 25.5914 13.6394 25.7947L13.6265 25.795L13.6265 25.795L13.3121 25.7998L13.3044 25.7999H13.2968H3.20011C3.20009 25.7999 3.20008 25.7999 3.20006 25.7999C2.82739 25.7999 2.46083 25.7052 2.13476 25.5248C1.80868 25.3443 1.53378 25.084 1.33586 24.7682C1.13795 24.4524 1.02349 24.0915 1.00325 23.7194C0.983003 23.3473 1.05763 22.9761 1.22012 22.6407L1.23495 22.6101L1.25182 22.5805L1.33342 22.4377L1.3505 22.4079L1.3696 22.3792L10.3036 8.97768L10.3039 8.97719C10.497 8.68789 10.6 8.34785 10.6 8.00002V7.99997C10.6 6.14346 11.3375 4.36299 12.6503 3.05024C13.963 1.73752 15.7434 1.00003 17.5999 1L23.7194 4.59998ZM10.622 17.4728L10.6228 17.4725C11.862 16.9882 12.8294 16.469 13.4578 15.9173L13.4581 15.9171C14.0422 15.4045 14.2 14.9928 14.2 14.5999C14.2 14.3878 14.1157 14.1843 13.9657 14.0343C13.8157 13.8842 13.6122 13.7999 13.4 13.7999C13.2131 13.7999 12.8615 13.8554 12.5066 13.9876L10.622 17.4728ZM10.622 17.4728C10.3213 17.5906 10.0144 17.7028 9.70362 17.8104L12.1313 14.1682M10.622 17.4728L12.1313 14.1682M12.1313 14.1682C12.1381 14.1637 12.1458 14.1588 12.1544 14.1535C12.2227 14.1112 12.3372 14.0509 12.506 13.9878L12.1313 14.1682ZM12.0905 14.1976C12.0904 14.1977 12.0909 14.1972 12.0921 14.1963C12.0911 14.1971 12.0906 14.1976 12.0905 14.1976ZM17.4586 7.85855C17.4961 7.82105 17.5469 7.79997 17.6 7.79997C17.653 7.79997 17.7039 7.82104 17.7414 7.85855C17.7789 7.89606 17.8 7.94693 17.8 7.99997C17.8 8.05301 17.7789 8.10388 17.7414 8.14139C17.7039 8.17889 17.653 8.19996 17.6 8.19996C17.5469 8.19996 17.4961 8.17889 17.4586 8.14139C17.4211 8.10388 17.4 8.05301 17.4 7.99997C17.4 7.94693 17.4211 7.89606 17.4586 7.85855Z" fill="#549ED8" stroke="white" stroke-width="2"/>
<rect x="16" y="6" width="4" height="4" rx="2" fill="white"/>
<rect x="11" y="14" width="3" height="3" rx="1.5" fill="white"/>
</svg>
