<svg width="24" height="23" viewBox="0 0 24 23" fill="none" xmlns="http://www.w3.org/2000/svg">
<path fill-rule="evenodd" clip-rule="evenodd" d="M15.6 3.01601e-08C16.7223 -0.000112483 17.8222 0.314577 18.7746 0.908314C19.7271 1.50205 20.4939 2.35103 20.988 3.35878L21.1008 3.59998H22.7999C23.0032 3.59997 23.2032 3.6516 23.381 3.75003C23.5589 3.84846 23.7088 3.99046 23.8168 4.16271C23.9248 4.33495 23.9872 4.5318 23.9982 4.73479C24.0093 4.93777 23.9686 5.14023 23.8799 5.32317L23.7983 5.46597L21.9359 8.25836C21.7931 8.47306 21.7233 8.72805 21.7367 8.98555L21.7535 9.13915L21.9227 10.0679C23.1095 16.5935 18.1932 22.6091 11.6112 22.7951L11.2968 22.7999H1.20006C0.996776 22.7999 0.796823 22.7483 0.618959 22.6498C0.441096 22.5514 0.291152 22.4094 0.183198 22.2372C0.0752427 22.0649 0.0128152 21.8681 0.00177217 21.6651C-0.00927089 21.4621 0.0314324 21.2596 0.120063 21.0767L0.201663 20.9339L9.13562 7.53236C9.43844 7.07868 9.60004 6.54543 9.60001 5.99997C9.60001 4.40868 10.2322 2.88256 11.3574 1.75735C12.4826 0.632138 14.0087 3.01601e-08 15.6 3.01601e-08ZM11.4 10.7999C11.0748 10.7999 10.6044 10.8839 10.1568 11.0507C9.70681 11.2187 9.45841 11.4047 9.37201 11.5043L5.31124 17.5967C6.50883 17.2523 7.78922 16.8731 8.98682 16.4039C10.2672 15.9035 11.3604 15.3335 12.1176 14.6687C12.852 14.0243 13.2 13.3583 13.2 12.5999C13.2 12.1225 13.0104 11.6647 12.6728 11.3271C12.3352 10.9896 11.8774 10.7999 11.4 10.7999ZM15.6 4.79997C15.2817 4.79997 14.9765 4.9264 14.7515 5.15144C14.5264 5.37649 14.4 5.68171 14.4 5.99997C14.4 6.31823 14.5264 6.62345 14.7515 6.84849C14.9765 7.07353 15.2817 7.19996 15.6 7.19996C15.9182 7.19996 16.2235 7.07353 16.4485 6.84849C16.6735 6.62345 16.8 6.31823 16.8 5.99997C16.8 5.68171 16.6735 5.37649 16.4485 5.15144C16.2235 4.9264 15.9182 4.79997 15.6 4.79997Z" fill="#549ED8"/>
</svg>
