<svg width="24" height="24" viewBox="0 0 24 24" fill="none" xmlns="http://www.w3.org/2000/svg">
<path d="M20.7625 14.3658C22.8791 13.6803 24.1558 11.6323 23.9844 9.49861C23.975 9.40061 23.9339 9.30835 23.8675 9.23571C23.801 9.16307 23.7128 9.11399 23.616 9.09587C23.616 9.09587 22.8533 8.93306 22.682 8.89879C22.5963 8.88165 22.562 8.77025 22.6134 8.71027C22.7248 8.5903 23.2561 7.99048 23.2561 7.99048C23.3932 7.84481 23.4189 7.61344 23.3161 7.44207C22.2107 5.61688 19.9742 4.70857 17.8491 5.40266C17.2407 5.59974 16.7094 5.95964 16.2467 6.41379C16.538 5.8311 16.7094 5.22271 16.7094 4.58004C16.7094 2.35211 15.1584 0.501222 13.0762 0.0127923C12.9792 -0.00682285 12.8786 0.00406327 12.788 0.0439555C12.6975 0.0838477 12.6216 0.150789 12.5706 0.235585C12.5706 0.235585 12.1764 0.912531 12.0908 1.06677C12.0479 1.14389 11.9279 1.13532 11.8937 1.07534C11.808 0.929669 11.4138 0.235585 11.4138 0.235585C11.311 0.0642059 11.1053 -0.0386214 10.9168 0.0127923C8.84313 0.492653 7.28358 2.34354 7.28358 4.57147C7.28358 5.21414 7.46353 5.82254 7.7463 6.40522C7.28358 5.95107 6.76087 5.59974 6.15248 5.40266C4.02738 4.70857 1.79089 5.61688 0.685493 7.44207C0.582666 7.61344 0.608373 7.83624 0.745476 7.99048C0.745476 7.99048 1.26818 8.57317 1.38815 8.7017C1.44813 8.76168 1.40528 8.88165 1.32816 8.89879L0.38558 9.09587C0.188495 9.13872 0.0342536 9.30153 0.0171158 9.49861C-0.0738277 10.5544 0.195031 11.61 0.779983 12.4936C1.36494 13.3773 2.23158 14.0371 3.23904 14.3658C3.856 14.5629 4.4901 14.5886 5.14134 14.4857C4.55866 14.7856 4.04452 15.1798 3.66749 15.7025C2.35644 17.502 2.52782 19.9099 3.92455 21.5294C4.05309 21.6836 4.27588 21.7265 4.4644 21.6408C4.4644 21.6408 5.17562 21.3238 5.33843 21.2466C5.41555 21.2124 5.50981 21.2809 5.50124 21.358L5.39841 22.3177C5.38127 22.5148 5.4841 22.7205 5.67262 22.7976C7.64347 23.6202 9.9828 23.0375 11.2938 21.2381C11.6709 20.7154 11.8851 20.1241 11.9965 19.4814C12.1079 20.1241 12.3221 20.7239 12.6991 21.2381C14.0102 23.0375 16.3495 23.6202 18.3204 22.7976C18.5089 22.7205 18.6117 22.5234 18.5946 22.3177C18.5946 22.3177 18.5089 21.538 18.4918 21.3666C18.4832 21.2809 18.5774 21.2124 18.6546 21.2466L19.5372 21.6408C19.7171 21.7265 19.9485 21.6836 20.077 21.5294C21.4737 19.9099 21.6451 17.502 20.3341 15.7025C19.957 15.1798 19.4429 14.7942 18.8602 14.4857C19.5115 14.5886 20.1456 14.5629 20.7625 14.3658Z" fill="#f363c5"/>
<path d="M12.4335 8.78481C12.5969 8.69049 12.7245 8.54491 12.7967 8.37063C12.8689 8.19636 12.8816 8.00314 12.8327 7.82093C12.7839 7.63873 12.6763 7.47773 12.5267 7.3629C12.377 7.24806 12.1937 7.18582 12.005 7.18582C11.8164 7.18582 11.6331 7.24806 11.4834 7.3629C11.3338 7.47773 11.2262 7.63873 11.1774 7.82093C11.1285 8.00314 11.1412 8.19636 11.2134 8.37063C11.2856 8.54491 11.4132 8.69049 11.5766 8.78481V9.88506C11.2818 9.94605 11.0034 10.0691 10.7599 10.2462C10.5164 10.4232 10.3134 10.65 10.1644 10.9116L9.1156 10.5714C9.07639 10.3869 8.97739 10.2205 8.83395 10.098C8.69052 9.97548 8.51066 9.90372 8.32229 9.89384C8.13391 9.88397 7.94754 9.93652 7.79208 10.0434C7.63662 10.1502 7.52076 10.3054 7.46247 10.4848C7.40418 10.6642 7.40672 10.8578 7.46968 11.0356C7.53265 11.2134 7.65254 11.3655 7.81074 11.4682C7.96894 11.571 8.15663 11.6186 8.34468 11.6038C8.53273 11.589 8.71064 11.5126 8.85082 11.3863L9.90052 11.7265C9.86714 12.0251 9.89796 12.3273 9.99092 12.613C10.0839 12.8987 10.2368 13.1612 10.4395 13.3829L9.78998 14.2766C9.60239 14.2569 9.41352 14.2996 9.25268 14.3981C9.09183 14.4967 8.968 14.6455 8.90037 14.8216C8.83275 14.9977 8.82512 15.1912 8.87866 15.3721C8.9322 15.5529 9.04393 15.7111 9.19651 15.822C9.34909 15.9329 9.534 15.9903 9.72257 15.9854C9.91113 15.9805 10.0928 15.9136 10.2394 15.7949C10.386 15.6762 10.4894 15.5125 10.5335 15.3291C10.5776 15.1457 10.5599 14.9528 10.4832 14.7805L11.1319 13.8868C11.4054 14.0111 11.7023 14.0755 12.0027 14.0758C12.3032 14.0761 12.6002 14.0122 12.8739 13.8885L13.5183 14.7796C13.4414 14.9519 13.4235 15.1447 13.4673 15.3281C13.5112 15.5116 13.6143 15.6754 13.7608 15.7943C13.9072 15.9132 14.0888 15.9804 14.2774 15.9855C14.4659 15.9907 14.6509 15.9335 14.8036 15.8228C14.9563 15.7121 15.0683 15.5542 15.1221 15.3734C15.1759 15.1926 15.1685 14.9991 15.1012 14.8229C15.0338 14.6468 14.9102 14.4977 14.7495 14.399C14.5888 14.3002 14.4 14.2572 14.2124 14.2766L13.5672 13.3855C13.7707 13.1635 13.9244 12.9005 14.0178 12.6142C14.1112 12.3279 14.1422 12.025 14.1087 11.7257L15.1499 11.3872C15.2902 11.5133 15.4681 11.5895 15.6562 11.6041C15.8443 11.6187 16.0319 11.5708 16.19 11.4679C16.348 11.3651 16.4678 11.2129 16.5306 11.035C16.5933 10.8571 16.5957 10.6635 16.5372 10.4842C16.4788 10.3049 16.3628 10.1498 16.2072 10.0431C16.0517 9.93644 15.8653 9.88405 15.6769 9.89409C15.4886 9.90413 15.3088 9.97603 15.1655 10.0987C15.0221 10.2213 14.9233 10.3878 14.8842 10.5723L13.8439 10.9099C13.6949 10.6489 13.4921 10.4225 13.249 10.2458C13.0058 10.0691 12.7278 9.94613 12.4335 9.88506V8.78481Z" fill="white"/>
</svg>
