<svg width="24" height="24" viewBox="0 0 24 24" fill="none" xmlns="http://www.w3.org/2000/svg">
<path d="M5 5H10V3H3V10H5V5ZM10 19H5V14H3V21H10V19ZM21 14H19V19H14V21H21V14ZM19 10H21V3H14V5H19V10Z" fill="current"/>
<path d="M19 14H21V10H19V14Z" fill="current"/>
<path d="M10 3V5H14V3H10Z" fill="current"/>
<path d="M5 10H3V14H5V10Z" fill="current"/>
<path d="M10 19V21H14V19H10Z" fill="current"/>
<path d="M17 7H12V9H15V12H17V7Z" fill="current"/>
<path d="M7 17H12V15H9V12H7V17Z" fill="current"/>
</svg>
