<svg width="24" height="24" viewBox="0 0 24 24" fill="none" xmlns="http://www.w3.org/2000/svg">
<path d="M19.3 13.125L12.7 19.725C12.6 19.825 12.4917 19.896 12.375 19.938C12.2584 19.9793 12.1334 20 12 20C11.8667 20 11.7417 19.9793 11.625 19.938C11.5084 19.896 11.4 19.825 11.3 19.725L4.70002 13.125C4.51669 12.9417 4.42069 12.7127 4.41202 12.438C4.40402 12.1627 4.50002 11.925 4.70002 11.725C4.88335 11.525 5.11235 11.4207 5.38702 11.412C5.66235 11.404 5.90002 11.5 6.10002 11.7L11 16.6L11 5.425C11 5.14167 11.0957 4.904 11.287 4.712C11.479 4.52067 11.7167 4.425 12 4.425C12.2834 4.425 12.5207 4.52067 12.712 4.712C12.904 4.904 13 5.14167 13 5.425L13 16.6L17.9 11.7C18.0834 11.5167 18.3167 11.4207 18.6 11.412C18.8834 11.404 19.1167 11.5 19.3 11.7C19.5 11.8833 19.6 12.1167 19.6 12.4C19.6 12.6833 19.5 12.925 19.3 13.125V13.125Z" fill="current"/>
</svg>
