<svg width="24" height="24" viewBox="0 0 24 24" fill="none" xmlns="http://www.w3.org/2000/svg">
<path d="M4.69998 10.875L11.3 4.275C11.4 4.175 11.5083 4.104 11.625 4.062C11.7416 4.02067 11.8666 4 12 4C12.1333 4 12.2583 4.02067 12.375 4.062C12.4916 4.104 12.6 4.175 12.7 4.275L19.3 10.875C19.4833 11.0583 19.5793 11.2873 19.588 11.562C19.596 11.8373 19.5 12.075 19.3 12.275C19.1166 12.475 18.8876 12.5793 18.613 12.588C18.3376 12.596 18.1 12.5 17.9 12.3L13 7.4L13 18.575C13 18.8583 12.9043 19.096 12.713 19.288C12.521 19.4793 12.2833 19.575 12 19.575C11.7166 19.575 11.4793 19.4793 11.288 19.288C11.096 19.096 11 18.8583 11 18.575L11 7.4L6.09998 12.3C5.91665 12.4833 5.68331 12.5793 5.39998 12.588C5.11664 12.596 4.88331 12.5 4.69998 12.3C4.49998 12.1167 4.39998 11.8833 4.39998 11.6C4.39998 11.3167 4.49998 11.075 4.69998 10.875V10.875Z" fill="current"/>
</svg>
