<svg width="24" height="24" viewBox="0 0 24 24" fill="none" xmlns="http://www.w3.org/2000/svg">
<path d="M18.9311 5.36227C19.0428 5.24757 19.1761 5.15645 19.3232 5.09425C19.4703 5.03204 19.6282 5 19.7878 5C19.9473 5 20.1053 5.03204 20.2524 5.09425C20.3995 5.15645 20.5328 5.24757 20.6444 5.36227C21.1124 5.8383 21.119 6.60753 20.6608 7.0918L10.9848 18.6056C10.8749 18.727 10.7416 18.8246 10.593 18.8924C10.4444 18.9601 10.2836 18.9967 10.1205 18.9998C9.95732 19.0029 9.79528 18.9724 9.64424 18.9103C9.4932 18.8482 9.35633 18.7557 9.24202 18.6385L3.35427 12.6329C3.1272 12.3998 3 12.0864 3 11.7599C3 11.4334 3.1272 11.12 3.35427 10.8869C3.46594 10.7722 3.59923 10.6811 3.74633 10.6189C3.89342 10.5567 4.05137 10.5246 4.21092 10.5246C4.37047 10.5246 4.52842 10.5567 4.67551 10.6189C4.82261 10.6811 4.9559 10.7722 5.06757 10.8869L10.0619 15.9816L18.8984 5.39851C18.9086 5.38578 18.9195 5.37368 18.9311 5.36227Z" fill="check"/>
</svg>
