<svg width="24" height="24" viewBox="0 0 24 24" fill="none" xmlns="http://www.w3.org/2000/svg">
<path d="M19.3967 4.40833L19.5 4.5C19.7041 4.70414 19.8262 4.97608 19.843 5.26424C19.8599 5.5524 19.7705 5.83674 19.5917 6.06333L19.5 6.16667L13.6667 12L19.5 17.8333C19.7041 18.0375 19.8262 18.3094 19.843 18.5976C19.8599 18.8857 19.7705 19.1701 19.5917 19.3967L19.5 19.5C19.2959 19.7041 19.0239 19.8261 18.7358 19.843C18.4476 19.8599 18.1633 19.7705 17.9367 19.5917L17.8333 19.5L12 13.6667L6.16667 19.5C5.96253 19.7041 5.69059 19.8261 5.40243 19.843C5.11427 19.8599 4.82992 19.7705 4.60333 19.5917L4.5 19.5C4.29592 19.2959 4.17385 19.0239 4.15695 18.7358C4.14006 18.4476 4.2295 18.1633 4.40833 17.9367L4.5 17.8333L10.3333 12L4.5 6.16667C4.29592 5.96253 4.17385 5.69059 4.15695 5.40243C4.14006 5.11426 4.22951 4.82992 4.40833 4.60333L4.5 4.5C4.70414 4.29591 4.97608 4.17385 5.26424 4.15695C5.5524 4.14006 5.83674 4.2295 6.06333 4.40833L6.16667 4.5L12 10.3333L17.8333 4.5C18.0375 4.29591 18.3094 4.17385 18.5976 4.15695C18.8857 4.14006 19.1701 4.2295 19.3967 4.40833Z" fill="current"/>
</svg>
