<svg width="24" height="24" viewBox="0 0 24 24" fill="none" xmlns="http://www.w3.org/2000/svg">
<path d="M7.00546 9.22792L3.73196 11.9999L7.00546 14.7719C7.11616 14.8618 7.20806 14.9732 7.27575 15.0996C7.34344 15.2259 7.38557 15.3648 7.39966 15.5079C7.41375 15.651 7.39952 15.7955 7.3578 15.933C7.31608 16.0705 7.24772 16.1981 7.15673 16.3084C7.06573 16.4187 6.95394 16.5094 6.82791 16.5753C6.70187 16.6412 6.56414 16.6809 6.42279 16.692C6.28144 16.7031 6.13933 16.6855 6.00478 16.6402C5.87023 16.5948 5.74597 16.5227 5.63928 16.4279L1.38106 12.8279C1.26175 12.7266 1.1658 12.5999 1.09996 12.4568C1.03412 12.3138 1 12.1578 1 11.9999C1 11.8421 1.03412 11.6861 1.09996 11.543C1.1658 11.4 1.26175 11.2733 1.38106 11.1719L5.63928 7.57192C5.85656 7.39554 6.13328 7.31249 6.41018 7.34055C6.68707 7.3686 6.94213 7.50554 7.12073 7.72203C7.29933 7.93852 7.38728 8.21736 7.36573 8.49882C7.34419 8.78028 7.21487 9.042 7.00546 9.22792V9.22792ZM22.6189 11.1719L18.3607 7.57192C18.1434 7.39554 17.8667 7.31249 17.5898 7.34055C17.3129 7.3686 17.0579 7.50554 16.8793 7.72203C16.7007 7.93852 16.6127 8.21736 16.6343 8.49882C16.6558 8.78028 16.7851 9.042 16.9945 9.22792L20.2769 11.9999L16.9945 14.7719C16.8864 14.8623 16.797 14.9735 16.7317 15.0992C16.6663 15.2249 16.6263 15.3626 16.6139 15.5042C16.6015 15.6457 16.617 15.7884 16.6595 15.9238C16.702 16.0592 16.7707 16.1847 16.8615 16.2929C16.9621 16.4131 17.0871 16.5099 17.228 16.5767C17.3688 16.6435 17.5222 16.6787 17.6776 16.68C17.9274 16.6799 18.1692 16.5907 18.3607 16.4279L22.6189 12.8279C22.7382 12.7266 22.8342 12.5999 22.9 12.4568C22.9659 12.3138 23 12.1578 23 11.9999C23 11.8421 22.9659 11.6861 22.9 11.543C22.8342 11.4 22.7382 11.2733 22.6189 11.1719V11.1719ZM15.2025 3.0629C14.9366 2.96699 14.6441 2.98121 14.3884 3.10249C14.1327 3.22378 13.9344 3.44236 13.8364 3.7109L8.15873 19.551C8.06419 19.8208 8.07821 20.1175 8.19776 20.3769C8.31731 20.6363 8.53276 20.8375 8.79746 20.937C8.91407 20.9796 9.03722 21.001 9.16119 21C9.38006 21.0004 9.59373 20.9323 9.77311 20.8051C9.9525 20.6779 10.0889 20.4976 10.1636 20.289L15.8413 4.44891C15.9358 4.17908 15.9218 3.88234 15.8022 3.62293C15.6827 3.36352 15.4672 3.16232 15.2025 3.0629V3.0629Z" fill="current"/>
</svg>
