<svg width="24" height="24" viewBox="0 0 24 24" fill="none" xmlns="http://www.w3.org/2000/svg">
<path d="M12.0005 4.561C10.9109 3.5591 9.48468 3.00304 8.00447 3.003C7.22101 3.00381 6.44544 3.15956 5.72241 3.46127C4.99937 3.76298 4.34313 4.20469 3.79147 4.761C1.43847 7.124 1.43947 10.82 3.79347 13.173L11.1255 20.505C11.2955 20.804 11.6235 20.997 12.0005 20.997C12.1553 20.9955 12.3076 20.9577 12.4451 20.8867C12.5827 20.8156 12.7016 20.7133 12.7925 20.588L20.2075 13.173C22.5615 10.819 22.5615 7.124 20.2055 4.757C19.6541 4.20171 18.9984 3.7609 18.276 3.45988C17.5537 3.15887 16.779 3.0036 15.9965 3.003C14.5163 3.00324 13.0902 3.55927 12.0005 4.561ZM18.7915 6.171C20.3545 7.742 20.3555 10.196 18.7935 11.759L12.0005 18.552L5.20747 11.759C3.64547 10.196 3.64647 7.742 5.20547 6.175C5.96547 5.419 6.95947 5.003 8.00447 5.003C9.04947 5.003 10.0395 5.419 10.7935 6.173L11.2935 6.673C11.3863 6.76594 11.4965 6.83968 11.6178 6.88999C11.7391 6.9403 11.8691 6.9662 12.0005 6.9662C12.1318 6.9662 12.2618 6.9403 12.3832 6.88999C12.5045 6.83968 12.6147 6.76594 12.7075 6.673L13.2075 6.173C14.7195 4.664 17.2815 4.668 18.7915 6.171Z" fill="current"/>
</svg>
