<svg width="24" height="24" viewBox="0 0 24 24" fill="none" xmlns="http://www.w3.org/2000/svg">
<path d="M21.743 12.331L12.743 2.331C12.364 1.909 11.636 1.909 11.257 2.331L2.257 12.331C2.12746 12.4746 2.04242 12.6527 2.01224 12.8438C1.98206 13.0348 2.00803 13.2305 2.087 13.407C2.247 13.768 2.605 14 3 14H5V21C5 21.2652 5.10536 21.5196 5.29289 21.7071C5.48043 21.8946 5.73478 22 6 22H9C9.26522 22 9.51957 21.8946 9.70711 21.7071C9.89464 21.5196 10 21.2652 10 21V17H14V21C14 21.2652 14.1054 21.5196 14.2929 21.7071C14.4804 21.8946 14.7348 22 15 22H18C18.2652 22 18.5196 21.8946 18.7071 21.7071C18.8946 21.5196 19 21.2652 19 21V14H21C21.1937 14.0008 21.3834 13.9453 21.546 13.8401C21.7087 13.735 21.8372 13.5848 21.916 13.4079C21.9948 13.231 22.0203 13.0349 21.9896 12.8437C21.9589 12.6525 21.8732 12.4744 21.743 12.331Z" fill="current"/>
</svg>
