<svg width="24" height="24" viewBox="0 0 24 24" fill="none" xmlns="http://www.w3.org/2000/svg">
<path fill-rule="evenodd" clip-rule="evenodd" d="M2 2.81818C2 1.81402 2.81403 1 3.81818 1C4.82233 1 5.63636 1.81403 5.63636 2.81818V16.5985C5.63636 17.6026 4.82233 18.4167 3.81818 18.4167C2.81403 18.4167 2 17.6026 2 16.5985V2.81818ZM10.1818 7.40152C10.1818 6.39736 10.9958 5.58334 12 5.58334C13.0041 5.58334 13.8182 6.39737 13.8182 7.40152V21.1818C13.8182 22.186 13.0041 23 12 23C10.9958 23 10.1818 22.186 10.1818 21.1818V7.40152ZM20.1818 1C19.1777 1 18.3636 1.81402 18.3636 2.81818V16.5985C18.3636 17.6026 19.1777 18.4167 20.1818 18.4167C21.186 18.4167 22 17.6026 22 16.5985V2.81818C22 1.81403 21.186 1 20.1818 1Z" fill="current"/>
</svg>
