<svg width="24" height="24" viewBox="0 0 24 24" fill="none" xmlns="http://www.w3.org/2000/svg">
<path d="M9.563 7.505L9.619 7.622L14.926 20.627C15.0225 20.8633 15.025 21.1276 14.933 21.3657C14.841 21.6038 14.6614 21.7977 14.431 21.9077C14.2006 22.0176 13.9369 22.0353 13.6939 21.9571C13.4509 21.8789 13.247 21.7107 13.124 21.487L13.074 21.382L11.693 18H5.407L3.917 21.407C3.81864 21.6315 3.64127 21.812 3.41858 21.9143C3.19589 22.0166 2.94339 22.0336 2.709 21.962L2.599 21.922C2.37436 21.8238 2.19362 21.6465 2.09111 21.4238C1.98861 21.2011 1.97149 20.9485 2.043 20.714L2.083 20.604L7.778 7.6C8.114 6.83 9.172 6.805 9.564 7.506L9.563 7.505ZM19 2C19.2449 2.00003 19.4813 2.08996 19.6644 2.25272C19.8474 2.41547 19.9643 2.63975 19.993 2.883L20 3V7H21C21.2449 7.00003 21.4813 7.08996 21.6644 7.25272C21.8474 7.41547 21.9643 7.63975 21.993 7.883L22 8C22 8.24493 21.91 8.48134 21.7473 8.66437C21.5845 8.84741 21.3603 8.96434 21.117 8.993L21 9H20V16C20 16.2449 19.91 16.4813 19.7473 16.6644C19.5845 16.8474 19.3603 16.9643 19.117 16.993L19 17C18.7551 17 18.5187 16.91 18.3356 16.7473C18.1526 16.5845 18.0357 16.3603 18.007 16.117L18 16V3C18 2.73478 18.1054 2.48043 18.2929 2.29289C18.4804 2.10536 18.7348 2 19 2ZM8.66 10.567L6.282 16H10.877L8.66 10.567ZM11 2H16C16.2449 2.00003 16.4813 2.08996 16.6644 2.25272C16.8474 2.41547 16.9643 2.63975 16.993 2.883L17 3V5.975C17 7.03587 16.5786 8.05328 15.8284 8.80343C15.0783 9.55357 14.0609 9.975 13 9.975C12.7348 9.975 12.4804 9.86964 12.2929 9.68211C12.1054 9.49457 12 9.24022 12 8.975C12 8.70978 12.1054 8.45543 12.2929 8.26789C12.4804 8.08036 12.7348 7.975 13 7.975C13.5046 7.97516 13.9906 7.78459 14.3606 7.4415C14.7305 7.09841 14.9572 6.62816 14.995 6.125L15 5.975V4H11C10.7451 3.99972 10.5 3.90212 10.3146 3.72715C10.1293 3.55218 10.0178 3.31305 10.0028 3.05861C9.9879 2.80416 10.0707 2.55362 10.2343 2.35817C10.3979 2.16271 10.6299 2.0371 10.883 2.007L11 2H16H11Z" fill="current"/>
</svg>
