<svg width="149" height="36" viewBox="0 0 149 36" fill="none" xmlns="http://www.w3.org/2000/svg">
<path fill-rule="evenodd" clip-rule="evenodd" d="M14.8835 8.86919C9.40371 8.86919 4.96143 13.3115 4.96143 18.7913C4.96143 24.2711 9.40371 28.7134 14.8835 28.7134C20.3634 28.7134 24.8057 24.2711 24.8057 18.7913C24.8057 13.3115 20.3634 8.86919 14.8835 8.86919ZM14.8834 13.2578C11.8273 13.2578 9.34989 15.7352 9.34989 18.7913C9.34989 21.8474 11.8273 24.3248 14.8834 24.3248C17.9394 24.3248 20.4169 21.8474 20.4169 18.7913C20.4169 15.7352 17.9394 13.2578 14.8834 13.2578Z" fill="#1E1E45"/>
<path fill-rule="evenodd" clip-rule="evenodd" d="M29.2468 27.0439C29.9055 25.9031 29.5146 24.4444 28.3738 23.7857L20.4028 19.1837C20.2825 20.9008 19.3789 22.4018 18.0469 23.3317L25.9887 27.9169C27.1295 28.5755 28.5882 28.1847 29.2468 27.0439ZM9.36919 18.3216C9.51309 16.6097 10.4364 15.1195 11.783 14.207L3.58687 9.47499C2.44609 8.81635 0.987367 9.20722 0.328733 10.348C-0.329901 11.4888 0.0609627 12.9475 1.20175 13.6061L9.36919 18.3216Z" fill="url(#paint0_linear_1110_2141)"/>
<path fill-rule="evenodd" clip-rule="evenodd" d="M29.2381 10.253C28.5794 9.11217 27.1207 8.72131 25.9799 9.37994L17.8857 14.0531C19.2526 14.9414 20.2028 16.4169 20.3786 18.1221L28.365 13.5111C29.5058 12.8525 29.8967 11.3937 29.2381 10.253ZM11.6252 23.1758C10.3131 22.2224 9.43605 20.7065 9.3483 18.9822L1.19296 23.6907C0.0521729 24.3493 -0.33869 25.808 0.319944 26.9488C0.978578 28.0896 2.4373 28.4805 3.57809 27.8219L11.6252 23.1758Z" fill="url(#paint1_linear_1110_2141)"/>
<path fill-rule="evenodd" clip-rule="evenodd" d="M14.788 2C13.4707 2 12.4028 3.06786 12.4028 4.38513V13.8436C13.1489 13.4688 13.9915 13.2578 14.8834 13.2578C15.7 13.2578 16.4753 13.4347 17.1731 13.7523V4.38512C17.1731 3.06786 16.1052 2 14.788 2ZM17.1731 23.8303C16.4753 24.1479 15.7 24.3248 14.8834 24.3248C13.9915 24.3248 13.1489 24.1138 12.4028 23.739V33.0066C12.4028 34.3239 13.4707 35.3918 14.788 35.3918C16.1052 35.3918 17.1731 34.3239 17.1731 33.0066V23.8303Z" fill="url(#paint2_linear_1110_2141)"/>
<rect x="12.4028" y="18.7913" width="3.43458" height="3.43458" rx="1.71729" transform="rotate(-45 12.4028 18.7913)" fill="white"/>
<path d="M56.104 22.584H55.912C55.624 23.08 55.176 23.504 54.568 23.856C53.96 24.208 53.208 24.384 52.312 24.384C51.56 24.384 50.84 24.232 50.152 23.928C49.48 23.608 48.88 23.176 48.352 22.632C47.84 22.072 47.432 21.408 47.128 20.64C46.824 19.872 46.672 19.032 46.672 18.12C46.672 17.208 46.824 16.368 47.128 15.6C47.432 14.832 47.84 14.176 48.352 13.632C48.88 13.072 49.48 12.64 50.152 12.336C50.84 12.016 51.56 11.856 52.312 11.856C53.208 11.856 53.96 12.032 54.568 12.384C55.176 12.736 55.624 13.16 55.912 13.656H56.104L55.912 11.976V6.816H59.056V24H56.104V22.584ZM52.96 21.48C53.376 21.48 53.768 21.408 54.136 21.264C54.52 21.104 54.856 20.88 55.144 20.592C55.432 20.304 55.664 19.952 55.84 19.536C56.016 19.12 56.104 18.648 56.104 18.12C56.104 17.592 56.016 17.12 55.84 16.704C55.664 16.288 55.432 15.936 55.144 15.648C54.856 15.36 54.52 15.144 54.136 15C53.768 14.84 53.376 14.76 52.96 14.76C52.544 14.76 52.144 14.84 51.76 15C51.392 15.16 51.064 15.384 50.776 15.672C50.488 15.96 50.256 16.312 50.08 16.728C49.904 17.144 49.816 17.608 49.816 18.12C49.816 18.632 49.904 19.096 50.08 19.512C50.256 19.928 50.488 20.28 50.776 20.568C51.064 20.856 51.392 21.08 51.76 21.24C52.144 21.4 52.544 21.48 52.96 21.48ZM72.7534 21.168C72.2094 22.128 71.4734 22.904 70.5454 23.496C69.6334 24.088 68.5134 24.384 67.1854 24.384C66.2894 24.384 65.4574 24.232 64.6894 23.928C63.9374 23.608 63.2814 23.168 62.7214 22.608C62.1614 22.048 61.7214 21.392 61.4014 20.64C61.0974 19.872 60.9454 19.032 60.9454 18.12C60.9454 17.272 61.0974 16.472 61.4014 15.72C61.7054 14.952 62.1294 14.288 62.6734 13.728C63.2174 13.152 63.8574 12.696 64.5934 12.36C65.3454 12.024 66.1694 11.856 67.0654 11.856C68.0094 11.856 68.8494 12.016 69.5854 12.336C70.3214 12.64 70.9374 13.072 71.4334 13.632C71.9294 14.176 72.3054 14.824 72.5614 15.576C72.8174 16.328 72.9454 17.144 72.9454 18.024C72.9454 18.136 72.9454 18.232 72.9454 18.312C72.9294 18.408 72.9214 18.496 72.9214 18.576C72.9054 18.656 72.8974 18.744 72.8974 18.84H64.0414C64.1054 19.32 64.2334 19.736 64.4254 20.088C64.6334 20.424 64.8814 20.712 65.1694 20.952C65.4734 21.176 65.8014 21.344 66.1534 21.456C66.5054 21.552 66.8654 21.6 67.2334 21.6C67.9534 21.6 68.5454 21.44 69.0094 21.12C69.4894 20.784 69.8654 20.368 70.1374 19.872L72.7534 21.168ZM69.8974 16.608C69.8814 16.4 69.8094 16.168 69.6814 15.912C69.5694 15.656 69.3934 15.416 69.1534 15.192C68.9294 14.968 68.6414 14.784 68.2894 14.64C67.9534 14.496 67.5454 14.424 67.0654 14.424C66.3934 14.424 65.8014 14.616 65.2894 15C64.7774 15.384 64.4174 15.92 64.2094 16.608H69.8974ZM74.9534 24V6.816H78.0974V24H74.9534ZM82.2025 14.928H80.1385V12.24H82.2025V8.64H85.3465V12.24H88.2265V14.928H85.3465V19.488C85.3465 19.76 85.3705 20.016 85.4185 20.256C85.4825 20.48 85.5945 20.672 85.7545 20.832C85.9785 21.088 86.2985 21.216 86.7145 21.216C86.9865 21.216 87.2025 21.192 87.3625 21.144C87.5225 21.08 87.6745 21 87.8185 20.904L88.7065 23.664C88.3385 23.84 87.9385 23.968 87.5065 24.048C87.0905 24.144 86.6265 24.192 86.1145 24.192C85.5225 24.192 84.9865 24.104 84.5065 23.928C84.0425 23.736 83.6505 23.48 83.3305 23.16C82.5785 22.44 82.2025 21.416 82.2025 20.088V14.928ZM97.5529 22.752H97.3609C96.9929 23.2 96.5449 23.584 96.0169 23.904C95.5049 24.224 94.8409 24.384 94.0249 24.384C93.4169 24.384 92.8409 24.28 92.2969 24.072C91.7689 23.88 91.3049 23.608 90.9049 23.256C90.5049 22.904 90.1929 22.48 89.9689 21.984C89.7449 21.488 89.6329 20.944 89.6329 20.352C89.6329 19.744 89.7529 19.2 89.9929 18.72C90.2329 18.224 90.5689 17.8 91.0009 17.448C91.4329 17.096 91.9369 16.832 92.5129 16.656C93.1049 16.464 93.7449 16.368 94.4329 16.368C95.2009 16.368 95.8329 16.432 96.3289 16.56C96.8249 16.672 97.2329 16.792 97.5529 16.92V16.56C97.5529 15.936 97.3049 15.424 96.8089 15.024C96.3129 14.608 95.6969 14.4 94.9609 14.4C93.8729 14.4 92.9529 14.856 92.2009 15.768L89.9209 14.208C91.1689 12.64 92.8729 11.856 95.0329 11.856C96.8569 11.856 98.2489 12.288 99.2089 13.152C100.169 14 100.649 15.264 100.649 16.944V24H97.5529V22.752ZM97.5529 19.224C97.1849 19.048 96.8009 18.912 96.4009 18.816C96.0169 18.704 95.5929 18.648 95.1289 18.648C94.3769 18.648 93.7929 18.816 93.3769 19.152C92.9769 19.472 92.7769 19.872 92.7769 20.352C92.7769 20.832 92.9689 21.216 93.3529 21.504C93.7529 21.792 94.2089 21.936 94.7209 21.936C95.1369 21.936 95.5209 21.864 95.8729 21.72C96.2249 21.56 96.5209 21.36 96.7609 21.12C97.0169 20.864 97.2089 20.576 97.3369 20.256C97.4809 19.92 97.5529 19.576 97.5529 19.224ZM103.149 15.168H111.285V17.952H103.149V15.168ZM113.977 6.816H117.121V16.176H117.265L121.201 12.24H125.089V12.432L120.721 16.68L125.449 23.808V24H121.729L118.513 18.84L117.121 20.208V24H113.977V6.816ZM131.92 11.856C132.832 11.856 133.664 12.016 134.416 12.336C135.184 12.64 135.84 13.072 136.384 13.632C136.944 14.176 137.376 14.832 137.68 15.6C138 16.368 138.16 17.208 138.16 18.12C138.16 19.032 138 19.872 137.68 20.64C137.376 21.408 136.944 22.072 136.384 22.632C135.84 23.176 135.184 23.608 134.416 23.928C133.664 24.232 132.832 24.384 131.92 24.384C131.008 24.384 130.168 24.232 129.4 23.928C128.648 23.608 127.992 23.176 127.432 22.632C126.888 22.072 126.456 21.408 126.136 20.64C125.832 19.872 125.68 19.032 125.68 18.12C125.68 17.208 125.832 16.368 126.136 15.6C126.456 14.832 126.888 14.176 127.432 13.632C127.992 13.072 128.648 12.64 129.4 12.336C130.168 12.016 131.008 11.856 131.92 11.856ZM131.92 21.48C132.32 21.48 132.704 21.408 133.072 21.264C133.456 21.104 133.792 20.88 134.08 20.592C134.368 20.304 134.592 19.952 134.752 19.536C134.928 19.12 135.016 18.648 135.016 18.12C135.016 17.592 134.928 17.12 134.752 16.704C134.592 16.288 134.368 15.936 134.08 15.648C133.792 15.36 133.456 15.144 133.072 15C132.704 14.84 132.32 14.76 131.92 14.76C131.504 14.76 131.112 14.84 130.744 15C130.376 15.144 130.048 15.36 129.76 15.648C129.472 15.936 129.24 16.288 129.064 16.704C128.904 17.12 128.824 17.592 128.824 18.12C128.824 18.648 128.904 19.12 129.064 19.536C129.24 19.952 129.472 20.304 129.76 20.592C130.048 20.88 130.376 21.104 130.744 21.264C131.112 21.408 131.504 21.48 131.92 21.48ZM139.946 12.24H142.898V13.872H143.09C143.234 13.584 143.426 13.32 143.666 13.08C143.906 12.84 144.17 12.632 144.458 12.456C144.762 12.28 145.082 12.144 145.418 12.048C145.77 11.952 146.114 11.904 146.45 11.904C146.866 11.904 147.218 11.944 147.506 12.024C147.81 12.104 148.066 12.208 148.274 12.336L147.434 15.192C147.242 15.096 147.026 15.024 146.786 14.976C146.562 14.912 146.282 14.88 145.946 14.88C145.514 14.88 145.122 14.968 144.77 15.144C144.418 15.304 144.114 15.536 143.858 15.84C143.618 16.144 143.426 16.504 143.282 16.92C143.154 17.32 143.09 17.76 143.09 18.24V24H139.946V12.24Z" fill="url(#paint3_linear_1110_2141)"/>
<defs>
<linearGradient id="paint0_linear_1110_2141" x1="29.2468" y1="27.0439" x2="0.328732" y2="10.348" gradientUnits="userSpaceOnUse">
<stop stop-color="#312FBF"/>
<stop offset="1" stop-color="#804EE6"/>
</linearGradient>
<linearGradient id="paint1_linear_1110_2141" x1="29.238" y1="10.253" x2="0.319943" y2="26.9488" gradientUnits="userSpaceOnUse">
<stop stop-color="#0BE7E1"/>
<stop offset="1" stop-color="#3889E6"/>
</linearGradient>
<linearGradient id="paint2_linear_1110_2141" x1="14.788" y1="2" x2="14.788" y2="35.3918" gradientUnits="userSpaceOnUse">
<stop stop-color="#E10D72"/>
<stop offset="1" stop-color="#7A1A84"/>
</linearGradient>
<linearGradient id="paint3_linear_1110_2141" x1="46" y1="0" x2="149" y2="31" gradientUnits="userSpaceOnUse">
<stop stop-color="#18CCE2"/>
<stop offset="0.53125" stop-color="#7E4DE5"/>
<stop offset="1" stop-color="#DA0E73"/>
</linearGradient>
</defs>
</svg>
