<svg width="186" height="52" viewBox="0 0 186 52" fill="none" xmlns="http://www.w3.org/2000/svg">
<rect opacity="0.3" width="23" height="23" rx="4" transform="matrix(1 0 -0.237516 0.971384 5.46289 7.85692)" fill="url(#paint0_linear_1133_2095)"/>
<rect width="23" height="23" rx="4" transform="matrix(1 0 -0.237516 0.971384 11.6504 3)" fill="url(#paint1_linear_1133_2095)"/>
<path d="M49.4719 6.62095H52.6639L55.7594 15.4567H55.9514L63.3679 6.62095H66.5839L62.5024 23.3132H59.2864L61.2986 15.0836L62.1747 12.2861H61.9827L55.7849 19.7696H53.8409L51.2787 12.2861H51.0867L50.5946 15.0836L48.5824 23.3132H45.3904L49.4719 6.62095ZM72.7774 22.1009H72.5854C72.111 22.5361 71.5718 22.9091 70.9678 23.22C70.3798 23.5308 69.6778 23.6862 68.8618 23.6862C68.2538 23.6862 67.7025 23.5852 67.2079 23.3831C66.7255 23.1966 66.3261 22.9324 66.0097 22.5905C65.6933 22.2486 65.482 21.8367 65.3758 21.3549C65.2696 20.8731 65.2868 20.3447 65.4274 19.7696C65.5718 19.179 65.821 18.6506 66.175 18.1843C66.5329 17.7025 66.9696 17.2906 67.4852 16.9487C68.0008 16.6068 68.5675 16.3503 69.1853 16.1794C69.8229 15.9929 70.4857 15.8996 71.1737 15.8996C71.9417 15.8996 72.5585 15.9618 73.0241 16.0861C73.4935 16.1949 73.873 16.3115 74.1626 16.4358L74.2481 16.0861C74.3963 15.48 74.2699 14.9826 73.8689 14.5941C73.4717 14.19 72.9051 13.9879 72.1691 13.9879C71.0811 13.9879 70.0528 14.4309 69.0842 15.3168L67.1747 13.8014C68.7951 12.2783 70.6854 11.5167 72.8454 11.5167C74.6694 11.5167 75.9588 11.9364 76.7135 12.7756C77.4721 13.5994 77.6519 14.8272 77.2529 16.4591L75.577 23.3132H72.481L72.7774 22.1009ZM73.6153 18.6739C73.2891 18.5029 72.9374 18.3708 72.5602 18.2776C72.2028 18.1688 71.7922 18.1144 71.3282 18.1144C70.5762 18.1144 69.9522 18.2776 69.4564 18.6039C68.9804 18.9148 68.6854 19.3033 68.5714 19.7696C68.4574 20.2359 68.5582 20.6089 68.8738 20.8886C69.2054 21.1684 69.6272 21.3083 70.1392 21.3083C70.5552 21.3083 70.9563 21.2383 71.3425 21.0985C71.7325 20.943 72.076 20.7488 72.373 20.5156C72.6898 20.2669 72.9502 19.9872 73.1542 19.6763C73.378 19.35 73.5317 19.0158 73.6153 18.6739ZM82.5243 23.6862C81.7563 23.6862 81.0911 23.593 80.5287 23.4065C79.9823 23.22 79.5212 22.979 79.1454 22.6837C78.7894 22.3729 78.5069 22.0232 78.298 21.6347C78.0928 21.2306 77.9596 20.8265 77.8984 20.4224L80.9914 19.2567C81.119 19.8473 81.3707 20.2903 81.7465 20.5856C82.1421 20.8653 82.6199 21.0052 83.1799 21.0052C83.7559 21.0052 84.2366 20.9042 84.622 20.7021C85.0074 20.5001 85.2343 20.2592 85.3027 19.9794C85.3787 19.6686 85.2955 19.4199 85.0531 19.2334C84.8305 19.0313 84.3942 18.8526 83.7442 18.6972L82.1737 18.3475C81.8247 18.2698 81.4711 18.1454 81.1129 17.9745C80.7707 17.8035 80.4719 17.5859 80.2165 17.3217C79.9611 17.0575 79.775 16.7389 79.6582 16.3659C79.5414 15.9929 79.5439 15.5577 79.6655 15.0603C79.8023 14.5008 80.0439 14.0035 80.3903 13.5683C80.7527 13.1331 81.186 12.7679 81.6902 12.4726C82.1982 12.1617 82.7592 11.9286 83.3732 11.7732C84.007 11.6022 84.6599 11.5167 85.3319 11.5167C86.4519 11.5167 87.3987 11.7343 88.1723 12.1695C88.9497 12.5891 89.4324 13.2652 89.6204 14.1977L86.6462 15.2701C86.5324 14.8194 86.2842 14.493 85.9016 14.291C85.519 14.0889 85.1117 13.9879 84.6797 13.9879C84.2317 13.9879 83.8169 14.0812 83.4353 14.2677C83.0575 14.4386 82.8344 14.664 82.766 14.9438C82.7014 15.208 82.7861 15.4178 83.0201 15.5732C83.2701 15.7286 83.6199 15.8685 84.0694 15.9929L85.7668 16.4125C86.8984 16.6923 87.6762 17.143 88.1002 17.7647C88.544 18.3708 88.6633 19.0935 88.4581 19.9328C88.3365 20.4301 88.1006 20.9042 87.7504 21.3549C87.4002 21.8056 86.9573 22.2097 86.4219 22.5672C85.9063 22.9091 85.3118 23.1811 84.6384 23.3831C83.981 23.5852 83.2763 23.6862 82.5243 23.6862ZM98.1836 23.5697L98.7746 21.9377H98.5826C98.1768 22.4195 97.6281 22.8314 96.9365 23.1733C96.2449 23.5153 95.4511 23.6862 94.5551 23.6862C93.8031 23.6862 93.1192 23.5386 92.5034 23.2433C91.9074 22.9324 91.41 22.5128 91.0112 21.9844C90.6322 21.4404 90.3819 20.7954 90.2603 20.0494C90.1387 19.3033 90.1863 18.4874 90.4029 17.6015C90.6195 16.7156 90.971 15.8996 91.4574 15.1536C91.9438 14.4076 92.5076 13.7703 93.1488 13.2419C93.8099 12.6979 94.5125 12.2783 95.2567 11.983C96.0207 11.6721 96.7787 11.5167 97.5307 11.5167C98.4267 11.5167 99.1369 11.6877 99.6613 12.0296C100.186 12.3715 100.533 12.7834 100.703 13.2652H100.895L101.231 11.8897H104.183L100.159 28.3489H97.015L98.1836 23.5697ZM95.8928 20.8653C96.3088 20.8653 96.7179 20.7954 97.1201 20.6555C97.5421 20.5001 97.9313 20.2825 98.2877 20.0027C98.6441 19.723 98.9597 19.381 99.2345 18.9769C99.5094 18.5729 99.7095 18.1144 99.8349 17.6015C99.9603 17.0886 99.9844 16.6301 99.9072 16.226C99.83 15.8219 99.6816 15.48 99.462 15.2002C99.2424 14.9205 98.9577 14.7106 98.6079 14.5708C98.2779 14.4153 97.9049 14.3376 97.4889 14.3376C97.0729 14.3376 96.6539 14.4153 96.2319 14.5708C95.8259 14.7262 95.4447 14.9438 95.0883 15.2235C94.7319 15.5033 94.4163 15.8452 94.1415 16.2493C93.8667 16.6534 93.6685 17.1041 93.5469 17.6015C93.4253 18.0988 93.4031 18.5495 93.4802 18.9536C93.5574 19.3577 93.7058 19.6997 93.9254 19.9794C94.145 20.2592 94.4198 20.4768 94.7498 20.6322C95.0958 20.7876 95.4768 20.8653 95.8928 20.8653ZM112.476 21.8212H112.284C111.775 22.3962 111.167 22.8547 110.46 23.1966C109.756 23.523 109.004 23.6862 108.204 23.6862C106.716 23.6862 105.712 23.2433 105.193 22.3574C104.689 21.4715 104.618 20.2903 104.979 18.8138L106.672 11.8897H109.816L108.215 18.4407C108.013 19.2645 108.047 19.8784 108.316 20.2825C108.605 20.671 109.11 20.8653 109.83 20.8653C110.262 20.8653 110.659 20.7798 111.02 20.6089C111.402 20.4224 111.741 20.1815 112.037 19.8862C112.353 19.5753 112.617 19.2179 112.827 18.8138C113.058 18.3941 113.23 17.9512 113.344 17.4849L114.712 11.8897H117.856L115.063 23.3132H112.111L112.476 21.8212ZM129.448 20.5622C128.676 21.4948 127.756 22.2486 126.687 22.8236C125.634 23.3987 124.444 23.6862 123.116 23.6862C122.22 23.6862 121.424 23.5386 120.728 23.2433C120.052 22.9324 119.501 22.505 119.074 21.961C118.647 21.4171 118.363 20.7798 118.221 20.0494C118.1 19.3033 118.147 18.4874 118.364 17.6015C118.565 16.7777 118.907 16.0006 119.39 15.2701C119.876 14.5241 120.458 13.8791 121.135 13.3352C121.816 12.7756 122.564 12.3327 123.38 12.0063C124.212 11.6799 125.076 11.5167 125.972 11.5167C126.916 11.5167 127.718 11.6721 128.378 11.983C129.041 12.2783 129.555 12.6979 129.918 13.2419C130.285 13.7703 130.507 14.3998 130.584 15.1303C130.661 15.8608 130.596 16.6534 130.387 17.5082C130.36 17.617 130.337 17.7103 130.318 17.788C130.279 17.8812 130.251 17.9667 130.232 18.0444C130.197 18.1221 130.168 18.2076 130.145 18.3009H121.289C121.239 18.7671 121.268 19.1712 121.376 19.5132C121.505 19.8395 121.684 20.1193 121.915 20.3524C122.166 20.57 122.454 20.7332 122.779 20.842C123.109 20.9353 123.457 20.9819 123.825 20.9819C124.545 20.9819 125.175 20.8265 125.715 20.5156C126.275 20.1892 126.75 19.7851 127.14 19.3033L129.448 20.5622ZM127.675 16.1327C127.708 15.9307 127.691 15.7053 127.624 15.4567C127.573 15.208 127.454 14.9748 127.267 14.7573C127.096 14.5397 126.852 14.3609 126.534 14.2211C126.233 14.0812 125.842 14.0112 125.362 14.0112C124.69 14.0112 124.052 14.1977 123.449 14.5708C122.846 14.9438 122.358 15.4644 121.987 16.1327H127.675ZM133.768 11.8897H136.72L136.333 13.475H136.525C136.737 13.1953 136.992 12.9388 137.289 12.7057C137.586 12.4726 137.899 12.2705 138.229 12.0996C138.575 11.9286 138.927 11.7965 139.286 11.7032C139.661 11.61 140.016 11.5633 140.352 11.5633C140.768 11.5633 141.111 11.6022 141.38 11.6799C141.665 11.7576 141.896 11.8587 142.074 11.983L140.555 14.7573C140.386 14.664 140.187 14.5941 139.958 14.5474C139.75 14.4853 139.477 14.4542 139.141 14.4542C138.709 14.4542 138.296 14.5397 137.903 14.7106C137.513 14.8661 137.153 15.0914 136.825 15.3867C136.513 15.682 136.236 16.0317 135.993 16.4358C135.77 16.8244 135.601 17.2518 135.487 17.718L134.119 23.3132H130.975L133.768 11.8897ZM147.824 22.1009H147.632C147.158 22.5361 146.619 22.9091 146.015 23.22C145.427 23.5308 144.725 23.6862 143.909 23.6862C143.301 23.6862 142.749 23.5852 142.255 23.3831C141.772 23.1966 141.373 22.9324 141.057 22.5905C140.74 22.2486 140.529 21.8367 140.423 21.3549C140.316 20.8731 140.334 20.3447 140.474 19.7696C140.619 19.179 140.868 18.6506 141.222 18.1843C141.58 17.7025 142.016 17.2906 142.532 16.9487C143.048 16.6068 143.614 16.3503 144.232 16.1794C144.87 15.9929 145.533 15.8996 146.221 15.8996C146.989 15.8996 147.605 15.9618 148.071 16.0861C148.54 16.1949 148.92 16.3115 149.209 16.4358L149.295 16.0861C149.443 15.48 149.317 14.9826 148.916 14.5941C148.519 14.19 147.952 13.9879 147.216 13.9879C146.128 13.9879 145.1 14.4309 144.131 15.3168L142.222 13.8014C143.842 12.2783 145.732 11.5167 147.892 11.5167C149.716 11.5167 151.006 11.9364 151.76 12.7756C152.519 13.5994 152.699 14.8272 152.3 16.4591L150.624 23.3132H147.528L147.824 22.1009ZM148.662 18.6739C148.336 18.5029 147.984 18.3708 147.607 18.2776C147.25 18.1688 146.839 18.1144 146.375 18.1144C145.623 18.1144 144.999 18.2776 144.503 18.6039C144.027 18.9148 143.732 19.3033 143.618 19.7696C143.504 20.2359 143.605 20.6089 143.921 20.8886C144.252 21.1684 144.674 21.3083 145.186 21.3083C145.602 21.3083 146.003 21.2383 146.389 21.0985C146.779 20.943 147.123 20.7488 147.42 20.5156C147.737 20.2669 147.997 19.9872 148.201 19.6763C148.425 19.35 148.579 19.0158 148.662 18.6739ZM162.103 21.9377H161.911C161.505 22.4195 160.956 22.8314 160.265 23.1733C159.573 23.5153 158.779 23.6862 157.883 23.6862C157.131 23.6862 156.447 23.5386 155.832 23.2433C155.236 22.9324 154.738 22.5128 154.339 21.9844C153.96 21.4404 153.71 20.7954 153.588 20.0494C153.467 19.3033 153.514 18.4874 153.731 17.6015C153.948 16.7156 154.299 15.8996 154.786 15.1536C155.272 14.4076 155.836 13.7703 156.477 13.2419C157.138 12.6979 157.841 12.2783 158.585 11.983C159.349 11.6721 160.107 11.5167 160.859 11.5167C161.755 11.5167 162.465 11.6877 162.989 12.0296C163.514 12.3715 163.861 12.7834 164.031 13.2652H164.223L164.43 11.6333L165.656 6.62095H168.8L164.718 23.3132H161.766L162.103 21.9377ZM159.221 20.8653C159.637 20.8653 160.046 20.7954 160.448 20.6555C160.87 20.5001 161.259 20.2825 161.616 20.0027C161.972 19.723 162.288 19.381 162.563 18.9769C162.837 18.5729 163.038 18.1144 163.163 17.6015C163.288 17.0886 163.313 16.6301 163.235 16.226C163.158 15.8219 163.01 15.48 162.79 15.2002C162.571 14.9205 162.286 14.7106 161.936 14.5708C161.606 14.4153 161.233 14.3376 160.817 14.3376C160.401 14.3376 159.982 14.4153 159.56 14.5708C159.154 14.7262 158.773 14.9438 158.416 15.2235C158.06 15.5033 157.744 15.8452 157.47 16.2493C157.195 16.6534 156.997 17.1041 156.875 17.6015C156.753 18.0988 156.731 18.5495 156.808 18.9536C156.886 19.3577 157.034 19.6997 157.254 19.9794C157.473 20.2592 157.748 20.4768 158.078 20.6322C158.424 20.7876 158.805 20.8653 159.221 20.8653ZM179.088 20.5622C178.316 21.4948 177.396 22.2486 176.328 22.8236C175.275 23.3987 174.085 23.6862 172.757 23.6862C171.861 23.6862 171.065 23.5386 170.369 23.2433C169.693 22.9324 169.141 22.505 168.714 21.961C168.287 21.4171 168.003 20.7798 167.862 20.0494C167.74 19.3033 167.788 18.4874 168.004 17.6015C168.206 16.7777 168.548 16.0006 169.03 15.2701C169.517 14.5241 170.099 13.8791 170.776 13.3352C171.456 12.7756 172.205 12.3327 173.021 12.0063C173.852 11.6799 174.716 11.5167 175.612 11.5167C176.556 11.5167 177.358 11.6721 178.018 11.983C178.682 12.2783 179.195 12.6979 179.558 13.2419C179.925 13.7703 180.147 14.3998 180.225 15.1303C180.302 15.8608 180.236 16.6534 180.027 17.5082C180.001 17.617 179.978 17.7103 179.959 17.788C179.92 17.8812 179.891 17.9667 179.872 18.0444C179.837 18.1221 179.808 18.2076 179.785 18.3009H170.929C170.879 18.7671 170.909 19.1712 171.017 19.5132C171.145 19.8395 171.325 20.1193 171.556 20.3524C171.807 20.57 172.095 20.7332 172.42 20.842C172.749 20.9353 173.098 20.9819 173.466 20.9819C174.186 20.9819 174.816 20.8265 175.356 20.5156C175.916 20.1892 176.39 19.7851 176.78 19.3033L179.088 20.5622ZM177.316 16.1327C177.349 15.9307 177.332 15.7053 177.265 15.4567C177.214 15.208 177.095 14.9748 176.908 14.7573C176.737 14.5397 176.493 14.3609 176.175 14.2211C175.873 14.0812 175.482 14.0112 175.002 14.0112C174.33 14.0112 173.693 14.1977 173.089 14.5708C172.486 14.9438 171.999 15.4644 171.628 16.1327H177.316Z" fill="url(#paint2_linear_1133_2095)"/>
<path d="M10.612 41.448C11.156 41.448 11.616 41.564 11.992 41.796C12.368 42.02 12.636 42.352 12.796 42.792C12.956 43.232 12.968 43.776 12.832 44.424L12.124 48H10.252L10.936 44.556C11.04 44.076 11.008 43.708 10.84 43.452C10.672 43.196 10.38 43.068 9.964 43.068C9.524 43.068 9.16 43.2 8.872 43.464C8.584 43.72 8.384 44.128 8.272 44.688L7.612 48H5.74L6.424 44.556C6.52 44.076 6.484 43.708 6.316 43.452C6.156 43.196 5.868 43.068 5.452 43.068C5.012 43.068 4.648 43.2 4.36 43.464C4.072 43.72 3.868 44.136 3.748 44.712L3.1 48H1.228L2.512 41.544H4.288L3.952 43.188L3.664 42.816C3.96 42.352 4.328 42.008 4.768 41.784C5.208 41.56 5.676 41.448 6.172 41.448C6.572 41.448 6.932 41.52 7.252 41.664C7.572 41.808 7.832 42.024 8.032 42.312C8.24 42.592 8.36 42.944 8.392 43.368L7.672 43.188C7.992 42.62 8.4 42.188 8.896 41.892C9.4 41.596 9.972 41.448 10.612 41.448ZM16.7534 48.096C16.2574 48.096 15.7974 47.984 15.3734 47.76C14.9494 47.528 14.6094 47.196 14.3534 46.764C14.0974 46.332 13.9694 45.812 13.9694 45.204C13.9694 44.66 14.0574 44.16 14.2334 43.704C14.4174 43.248 14.6734 42.852 15.0014 42.516C15.3294 42.18 15.7094 41.92 16.1414 41.736C16.5734 41.544 17.0374 41.448 17.5334 41.448C18.0694 41.448 18.5294 41.548 18.9134 41.748C19.2974 41.948 19.5814 42.26 19.7654 42.684C19.9574 43.1 20.0254 43.64 19.9694 44.304C19.9294 45.064 19.7734 45.732 19.5014 46.308C19.2294 46.876 18.8614 47.316 18.3974 47.628C17.9414 47.94 17.3934 48.096 16.7534 48.096ZM17.3294 46.548C17.6974 46.548 18.0214 46.46 18.3014 46.284C18.5894 46.1 18.8134 45.852 18.9734 45.54C19.1414 45.22 19.2254 44.848 19.2254 44.424C19.2254 43.984 19.0934 43.636 18.8294 43.38C18.5734 43.124 18.2134 42.996 17.7494 42.996C17.3894 42.996 17.0654 43.088 16.7774 43.272C16.4894 43.448 16.2614 43.696 16.0934 44.016C15.9334 44.328 15.8534 44.696 15.8534 45.12C15.8534 45.56 15.9814 45.908 16.2374 46.164C16.5014 46.42 16.8654 46.548 17.3294 46.548ZM18.6134 48L18.8654 46.716L19.2854 44.796L19.5374 42.876L19.8014 41.544H21.6734L20.3894 48H18.6134ZM22.5665 50.424C22.2385 50.424 21.9145 50.372 21.5945 50.268C21.2665 50.164 21.0065 50.028 20.8145 49.86L21.6785 48.516C21.8145 48.636 21.9665 48.732 22.1345 48.804C22.3105 48.876 22.5025 48.912 22.7105 48.912C22.9505 48.912 23.1585 48.852 23.3345 48.732C23.5185 48.612 23.6985 48.408 23.8745 48.12L24.3905 47.304L24.5585 47.112L27.9665 41.544H29.8145L25.5185 48.432C25.1985 48.936 24.8905 49.332 24.5945 49.62C24.3065 49.916 23.9985 50.124 23.6705 50.244C23.3505 50.364 22.9825 50.424 22.5665 50.424ZM23.9945 48.252L22.4465 41.544H24.3185L25.4945 46.944L23.9945 48.252ZM35.3208 48.096C34.8568 48.096 34.4608 48.004 34.1328 47.82C33.8048 47.628 33.5688 47.356 33.4248 47.004C33.2888 46.644 33.2688 46.22 33.3648 45.732L34.4808 40.116H36.3528L35.2368 45.72C35.1888 45.992 35.2168 46.208 35.3208 46.368C35.4248 46.528 35.6168 46.608 35.8968 46.608C36.0248 46.608 36.1528 46.588 36.2808 46.548C36.4168 46.508 36.5408 46.452 36.6528 46.38L36.9288 47.712C36.6968 47.856 36.4408 47.956 36.1608 48.012C35.8808 48.068 35.6008 48.096 35.3208 48.096ZM32.8848 43.128L33.1728 41.688H37.6488L37.3608 43.128H32.8848ZM42.9477 41.448C43.4917 41.448 43.9557 41.564 44.3397 41.796C44.7237 42.02 44.9957 42.352 45.1557 42.792C45.3237 43.232 45.3437 43.776 45.2157 44.424L44.4957 48H42.6237L43.3197 44.544C43.4157 44.072 43.3757 43.708 43.1997 43.452C43.0317 43.196 42.7197 43.068 42.2637 43.068C41.7917 43.068 41.3957 43.204 41.0757 43.476C40.7637 43.748 40.5477 44.164 40.4277 44.724L39.7797 48H37.9077L39.6837 39.096H41.5557L40.7037 43.368L40.3317 42.816C40.6437 42.344 41.0277 42 41.4837 41.784C41.9477 41.56 42.4357 41.448 42.9477 41.448ZM49.66 48.096C48.988 48.096 48.404 47.976 47.908 47.736C47.42 47.496 47.04 47.16 46.768 46.728C46.496 46.296 46.36 45.788 46.36 45.204C46.36 44.484 46.52 43.844 46.84 43.284C47.168 42.716 47.616 42.268 48.184 41.94C48.76 41.612 49.42 41.448 50.164 41.448C50.796 41.448 51.34 41.568 51.796 41.808C52.252 42.04 52.604 42.368 52.852 42.792C53.108 43.208 53.236 43.708 53.236 44.292C53.236 44.46 53.224 44.628 53.2 44.796C53.184 44.964 53.16 45.124 53.128 45.276H47.788L47.98 44.184H52.252L51.484 44.52C51.548 44.16 51.528 43.86 51.424 43.62C51.32 43.372 51.152 43.184 50.92 43.056C50.688 42.92 50.408 42.852 50.08 42.852C49.672 42.852 49.324 42.952 49.036 43.152C48.756 43.344 48.544 43.612 48.4 43.956C48.256 44.3 48.184 44.688 48.184 45.12C48.184 45.616 48.32 45.988 48.592 46.236C48.872 46.476 49.292 46.596 49.852 46.596C50.18 46.596 50.496 46.544 50.8 46.44C51.104 46.336 51.364 46.188 51.58 45.996L52.36 47.232C51.984 47.528 51.56 47.748 51.088 47.892C50.624 48.028 50.148 48.096 49.66 48.096ZM59.5136 48.096C58.9456 48.096 58.4096 48.032 57.9056 47.904C57.4096 47.776 57.0256 47.616 56.7536 47.424L57.4736 46.068C57.7536 46.252 58.0936 46.4 58.4936 46.512C58.9016 46.624 59.3096 46.68 59.7176 46.68C60.1576 46.68 60.4776 46.624 60.6776 46.512C60.8776 46.4 60.9776 46.248 60.9776 46.056C60.9776 45.904 60.8936 45.792 60.7256 45.72C60.5576 45.64 60.3456 45.576 60.0896 45.528C59.8336 45.48 59.5576 45.424 59.2616 45.36C58.9736 45.296 58.6976 45.208 58.4336 45.096C58.1776 44.976 57.9656 44.808 57.7976 44.592C57.6376 44.368 57.5576 44.076 57.5576 43.716C57.5576 43.228 57.6936 42.816 57.9656 42.48C58.2456 42.144 58.6296 41.888 59.1176 41.712C59.6136 41.536 60.1736 41.448 60.7976 41.448C61.2456 41.448 61.6816 41.496 62.1056 41.592C62.5296 41.688 62.8896 41.82 63.1856 41.988L62.5136 43.356C62.2096 43.164 61.8896 43.036 61.5536 42.972C61.2256 42.9 60.9096 42.864 60.6056 42.864C60.1656 42.864 59.8456 42.928 59.6456 43.056C59.4536 43.176 59.3576 43.324 59.3576 43.5C59.3576 43.652 59.4376 43.772 59.5976 43.86C59.7656 43.94 59.9776 44.008 60.2336 44.064C60.4896 44.112 60.7656 44.168 61.0616 44.232C61.3576 44.288 61.6336 44.376 61.8896 44.496C62.1456 44.608 62.3536 44.772 62.5136 44.988C62.6816 45.196 62.7656 45.48 62.7656 45.84C62.7656 46.328 62.6216 46.744 62.3336 47.088C62.0536 47.424 61.6696 47.676 61.1816 47.844C60.6936 48.012 60.1376 48.096 59.5136 48.096ZM67.6646 48.096C67.1446 48.096 66.6886 47.996 66.2966 47.796C65.9126 47.596 65.6246 47.288 65.4326 46.872C65.2406 46.448 65.1726 45.904 65.2286 45.24C65.2766 44.472 65.4326 43.804 65.6966 43.236C65.9686 42.668 66.3366 42.228 66.8006 41.916C67.2646 41.604 67.8126 41.448 68.4446 41.448C68.9486 41.448 69.4126 41.564 69.8366 41.796C70.2606 42.02 70.6006 42.348 70.8566 42.78C71.1126 43.204 71.2406 43.724 71.2406 44.34C71.2406 44.876 71.1486 45.376 70.9646 45.84C70.7806 46.296 70.5246 46.692 70.1966 47.028C69.8766 47.364 69.5006 47.628 69.0686 47.82C68.6366 48.004 68.1686 48.096 67.6646 48.096ZM63.0686 50.328L64.8206 41.544H66.5966L66.3326 42.828L65.9246 44.748L65.6726 46.668L64.9406 50.328H63.0686ZM67.4486 46.548C67.8246 46.548 68.1526 46.46 68.4326 46.284C68.7126 46.1 68.9326 45.852 69.0926 45.54C69.2606 45.22 69.3446 44.848 69.3446 44.424C69.3446 43.984 69.2166 43.636 68.9606 43.38C68.7046 43.124 68.3406 42.996 67.8686 42.996C67.5086 42.996 67.1846 43.088 66.8966 43.272C66.6086 43.448 66.3846 43.696 66.2246 44.016C66.0646 44.328 65.9846 44.696 65.9846 45.12C65.9846 45.56 66.1126 45.908 66.3686 46.164C66.6246 46.42 66.9846 46.548 67.4486 46.548ZM71.8218 48L73.5978 39.096H75.4698L73.6938 48H71.8218ZM78.8631 48.096C78.1911 48.096 77.6071 47.976 77.1111 47.736C76.6231 47.496 76.2431 47.16 75.9711 46.728C75.6991 46.296 75.5631 45.788 75.5631 45.204C75.5631 44.484 75.7231 43.844 76.0431 43.284C76.3711 42.716 76.8191 42.268 77.3871 41.94C77.9631 41.612 78.6231 41.448 79.3671 41.448C79.9991 41.448 80.5431 41.568 80.9991 41.808C81.4551 42.04 81.8071 42.368 82.0551 42.792C82.3111 43.208 82.4391 43.708 82.4391 44.292C82.4391 44.46 82.4271 44.628 82.4031 44.796C82.3871 44.964 82.3631 45.124 82.3311 45.276H76.9911L77.1831 44.184H81.4551L80.6871 44.52C80.7511 44.16 80.7311 43.86 80.6271 43.62C80.5231 43.372 80.3551 43.184 80.1231 43.056C79.8911 42.92 79.6111 42.852 79.2831 42.852C78.8751 42.852 78.5271 42.952 78.2391 43.152C77.9591 43.344 77.7471 43.612 77.6031 43.956C77.4591 44.3 77.3871 44.688 77.3871 45.12C77.3871 45.616 77.5231 45.988 77.7951 46.236C78.0751 46.476 78.4951 46.596 79.0551 46.596C79.3831 46.596 79.6991 46.544 80.0031 46.44C80.3071 46.336 80.5671 46.188 80.7831 45.996L81.5631 47.232C81.1871 47.528 80.7631 47.748 80.2911 47.892C79.8271 48.028 79.3511 48.096 78.8631 48.096ZM88.0063 41.448C88.5583 41.448 89.0263 41.564 89.4103 41.796C89.7943 42.02 90.0663 42.352 90.2263 42.792C90.3863 43.232 90.4023 43.776 90.2743 44.424L89.5543 48H87.6823L88.3783 44.544C88.4743 44.072 88.4343 43.708 88.2583 43.452C88.0903 43.196 87.7783 43.068 87.3223 43.068C86.8503 43.068 86.4543 43.204 86.1343 43.476C85.8223 43.748 85.6063 44.164 85.4863 44.724L84.8383 48H82.9663L84.2503 41.544H86.0263L85.6543 43.368L85.3903 42.816C85.7023 42.344 86.0863 42 86.5423 41.784C87.0063 41.56 87.4943 41.448 88.0063 41.448ZM94.2266 48.096C93.7306 48.096 93.2706 47.984 92.8466 47.76C92.4226 47.528 92.0826 47.196 91.8266 46.764C91.5706 46.332 91.4426 45.812 91.4426 45.204C91.4426 44.66 91.5306 44.16 91.7066 43.704C91.8906 43.248 92.1466 42.852 92.4746 42.516C92.8026 42.18 93.1826 41.92 93.6146 41.736C94.0466 41.544 94.5106 41.448 95.0066 41.448C95.5106 41.448 95.9466 41.536 96.3146 41.712C96.6826 41.888 96.9666 42.16 97.1666 42.528C97.3746 42.888 97.4786 43.344 97.4786 43.896C97.4786 44.488 97.4066 45.04 97.2626 45.552C97.1266 46.056 96.9186 46.5 96.6386 46.884C96.3586 47.26 96.0146 47.556 95.6066 47.772C95.2066 47.988 94.7466 48.096 94.2266 48.096ZM94.8026 46.548C95.1706 46.548 95.4946 46.46 95.7746 46.284C96.0626 46.1 96.2866 45.852 96.4466 45.54C96.6146 45.22 96.6986 44.848 96.6986 44.424C96.6986 43.984 96.5666 43.636 96.3026 43.38C96.0466 43.124 95.6866 42.996 95.2226 42.996C94.8626 42.996 94.5386 43.088 94.2506 43.272C93.9626 43.448 93.7346 43.696 93.5666 44.016C93.4066 44.328 93.3266 44.696 93.3266 45.12C93.3266 45.56 93.4546 45.908 93.7106 46.164C93.9746 46.42 94.3386 46.548 94.8026 46.548ZM96.0746 48L96.3386 46.716L96.7466 44.796L96.9986 42.876L97.7546 39.096H99.6266L97.8506 48H96.0746ZM102.967 48.096C102.311 48.096 101.739 47.976 101.251 47.736C100.763 47.496 100.383 47.16 100.111 46.728C99.8472 46.296 99.7152 45.788 99.7152 45.204C99.7152 44.484 99.8832 43.844 100.219 43.284C100.555 42.716 101.015 42.268 101.599 41.94C102.191 41.612 102.863 41.448 103.615 41.448C104.279 41.448 104.851 41.568 105.331 41.808C105.819 42.048 106.195 42.384 106.459 42.816C106.731 43.24 106.867 43.748 106.867 44.34C106.867 45.052 106.699 45.692 106.363 46.26C106.027 46.828 105.567 47.276 104.983 47.604C104.399 47.932 103.727 48.096 102.967 48.096ZM103.087 46.56C103.455 46.56 103.779 46.472 104.059 46.296C104.347 46.112 104.571 45.86 104.731 45.54C104.891 45.22 104.971 44.848 104.971 44.424C104.971 43.992 104.843 43.644 104.587 43.38C104.331 43.116 103.971 42.984 103.507 42.984C103.139 42.984 102.811 43.076 102.523 43.26C102.243 43.436 102.019 43.684 101.851 44.004C101.691 44.324 101.611 44.696 101.611 45.12C101.611 45.56 101.739 45.912 101.995 46.176C102.251 46.432 102.615 46.56 103.087 46.56ZM107.447 48L108.731 41.544H110.507L110.135 43.38L109.967 42.852C110.255 42.332 110.631 41.968 111.095 41.76C111.559 41.552 112.115 41.448 112.763 41.448L112.427 43.176C112.347 43.168 112.271 43.164 112.199 43.164C112.135 43.156 112.067 43.152 111.995 43.152C111.443 43.152 110.991 43.288 110.639 43.56C110.295 43.832 110.063 44.272 109.943 44.88L109.319 48H107.447ZM121.053 41.448C121.605 41.448 122.073 41.564 122.457 41.796C122.841 42.02 123.113 42.352 123.273 42.792C123.433 43.232 123.449 43.776 123.321 44.424L122.601 48H120.729L121.425 44.544C121.521 44.072 121.481 43.708 121.305 43.452C121.137 43.196 120.825 43.068 120.369 43.068C119.897 43.068 119.501 43.204 119.181 43.476C118.869 43.748 118.653 44.164 118.533 44.724L117.885 48H116.013L117.297 41.544H119.073L118.701 43.368L118.437 42.816C118.749 42.344 119.133 42 119.589 41.784C120.053 41.56 120.541 41.448 121.053 41.448ZM127.765 48.096C127.093 48.096 126.509 47.976 126.013 47.736C125.525 47.496 125.145 47.16 124.873 46.728C124.601 46.296 124.465 45.788 124.465 45.204C124.465 44.484 124.625 43.844 124.945 43.284C125.273 42.716 125.721 42.268 126.289 41.94C126.865 41.612 127.525 41.448 128.269 41.448C128.901 41.448 129.445 41.568 129.901 41.808C130.357 42.04 130.709 42.368 130.957 42.792C131.213 43.208 131.341 43.708 131.341 44.292C131.341 44.46 131.329 44.628 131.305 44.796C131.289 44.964 131.265 45.124 131.233 45.276H125.893L126.085 44.184H130.357L129.589 44.52C129.653 44.16 129.633 43.86 129.529 43.62C129.425 43.372 129.257 43.184 129.025 43.056C128.793 42.92 128.513 42.852 128.185 42.852C127.777 42.852 127.429 42.952 127.141 43.152C126.861 43.344 126.649 43.612 126.505 43.956C126.361 44.3 126.289 44.688 126.289 45.12C126.289 45.616 126.425 45.988 126.697 46.236C126.977 46.476 127.397 46.596 127.957 46.596C128.285 46.596 128.601 46.544 128.905 46.44C129.209 46.336 129.469 46.188 129.685 45.996L130.465 47.232C130.089 47.528 129.665 47.748 129.193 47.892C128.729 48.028 128.253 48.096 127.765 48.096ZM133.503 48L132.075 41.544H133.923L135.111 47.1H134.151L137.571 41.544H139.443L135.435 48H133.503ZM142.18 48.096C141.508 48.096 140.924 47.976 140.428 47.736C139.94 47.496 139.56 47.16 139.288 46.728C139.016 46.296 138.88 45.788 138.88 45.204C138.88 44.484 139.04 43.844 139.36 43.284C139.688 42.716 140.136 42.268 140.704 41.94C141.28 41.612 141.94 41.448 142.684 41.448C143.316 41.448 143.86 41.568 144.316 41.808C144.772 42.04 145.124 42.368 145.372 42.792C145.628 43.208 145.756 43.708 145.756 44.292C145.756 44.46 145.744 44.628 145.72 44.796C145.704 44.964 145.68 45.124 145.648 45.276H140.308L140.5 44.184H144.772L144.004 44.52C144.068 44.16 144.048 43.86 143.944 43.62C143.84 43.372 143.672 43.184 143.44 43.056C143.208 42.92 142.928 42.852 142.6 42.852C142.192 42.852 141.844 42.952 141.556 43.152C141.276 43.344 141.064 43.612 140.92 43.956C140.776 44.3 140.704 44.688 140.704 45.12C140.704 45.616 140.84 45.988 141.112 46.236C141.392 46.476 141.812 46.596 142.372 46.596C142.7 46.596 143.016 46.544 143.32 46.44C143.624 46.336 143.884 46.188 144.1 45.996L144.88 47.232C144.504 47.528 144.08 47.748 143.608 47.892C143.144 48.028 142.668 48.096 142.18 48.096ZM146.283 48L147.567 41.544H149.343L148.971 43.38L148.803 42.852C149.091 42.332 149.467 41.968 149.931 41.76C150.395 41.552 150.951 41.448 151.599 41.448L151.263 43.176C151.183 43.168 151.107 43.164 151.035 43.164C150.971 43.156 150.903 43.152 150.831 43.152C150.279 43.152 149.827 43.288 149.475 43.56C149.131 43.832 148.899 44.272 148.779 44.88L148.155 48H146.283ZM155.065 48L156.409 41.316C156.553 40.612 156.857 40.052 157.321 39.636C157.793 39.212 158.425 39 159.217 39C159.513 39 159.789 39.032 160.045 39.096C160.301 39.152 160.521 39.24 160.705 39.36L159.973 40.704C159.757 40.552 159.509 40.476 159.229 40.476C158.941 40.476 158.717 40.556 158.557 40.716C158.397 40.868 158.281 41.112 158.209 41.448L158.077 42.048L157.981 42.804L156.949 48H155.065ZM155.041 43.128L155.329 41.688H159.805L159.517 43.128H155.041ZM162.324 48.096C161.828 48.096 161.368 47.984 160.944 47.76C160.52 47.528 160.18 47.196 159.924 46.764C159.668 46.332 159.54 45.812 159.54 45.204C159.54 44.66 159.628 44.16 159.804 43.704C159.988 43.248 160.244 42.852 160.572 42.516C160.9 42.18 161.28 41.92 161.712 41.736C162.144 41.544 162.608 41.448 163.104 41.448C163.64 41.448 164.1 41.548 164.484 41.748C164.868 41.948 165.152 42.26 165.336 42.684C165.528 43.1 165.596 43.64 165.54 44.304C165.5 45.064 165.344 45.732 165.072 46.308C164.8 46.876 164.432 47.316 163.968 47.628C163.512 47.94 162.964 48.096 162.324 48.096ZM162.9 46.548C163.268 46.548 163.592 46.46 163.872 46.284C164.16 46.1 164.384 45.852 164.544 45.54C164.712 45.22 164.796 44.848 164.796 44.424C164.796 43.984 164.664 43.636 164.4 43.38C164.144 43.124 163.784 42.996 163.32 42.996C162.96 42.996 162.636 43.088 162.348 43.272C162.06 43.448 161.832 43.696 161.664 44.016C161.504 44.328 161.424 44.696 161.424 45.12C161.424 45.56 161.552 45.908 161.808 46.164C162.072 46.42 162.436 46.548 162.9 46.548ZM164.184 48L164.436 46.716L164.856 44.796L165.108 42.876L165.372 41.544H167.244L165.96 48H164.184ZM170.633 48.096C170.137 48.096 169.677 47.984 169.253 47.76C168.829 47.528 168.489 47.196 168.233 46.764C167.977 46.332 167.849 45.812 167.849 45.204C167.849 44.66 167.937 44.16 168.113 43.704C168.297 43.248 168.553 42.852 168.881 42.516C169.209 42.18 169.589 41.92 170.021 41.736C170.453 41.544 170.917 41.448 171.413 41.448C171.917 41.448 172.353 41.536 172.721 41.712C173.089 41.888 173.373 42.16 173.573 42.528C173.781 42.888 173.885 43.344 173.885 43.896C173.885 44.488 173.813 45.04 173.669 45.552C173.533 46.056 173.325 46.5 173.045 46.884C172.765 47.26 172.421 47.556 172.013 47.772C171.613 47.988 171.153 48.096 170.633 48.096ZM171.209 46.548C171.577 46.548 171.901 46.46 172.181 46.284C172.469 46.1 172.693 45.852 172.853 45.54C173.021 45.22 173.105 44.848 173.105 44.424C173.105 43.984 172.973 43.636 172.709 43.38C172.453 43.124 172.093 42.996 171.629 42.996C171.269 42.996 170.945 43.088 170.657 43.272C170.369 43.448 170.141 43.696 169.973 44.016C169.813 44.328 169.733 44.696 169.733 45.12C169.733 45.56 169.861 45.908 170.117 46.164C170.381 46.42 170.745 46.548 171.209 46.548ZM172.481 48L172.745 46.716L173.153 44.796L173.405 42.876L174.161 39.096H176.033L174.257 48H172.481ZM179.433 48.096C178.761 48.096 178.177 47.976 177.681 47.736C177.193 47.496 176.813 47.16 176.541 46.728C176.269 46.296 176.133 45.788 176.133 45.204C176.133 44.484 176.293 43.844 176.613 43.284C176.941 42.716 177.389 42.268 177.957 41.94C178.533 41.612 179.193 41.448 179.937 41.448C180.569 41.448 181.113 41.568 181.569 41.808C182.025 42.04 182.377 42.368 182.625 42.792C182.881 43.208 183.009 43.708 183.009 44.292C183.009 44.46 182.997 44.628 182.973 44.796C182.957 44.964 182.933 45.124 182.901 45.276H177.561L177.753 44.184H182.025L181.257 44.52C181.321 44.16 181.301 43.86 181.197 43.62C181.093 43.372 180.925 43.184 180.693 43.056C180.461 42.92 180.181 42.852 179.853 42.852C179.445 42.852 179.097 42.952 178.809 43.152C178.529 43.344 178.317 43.612 178.173 43.956C178.029 44.3 177.957 44.688 177.957 45.12C177.957 45.616 178.093 45.988 178.365 46.236C178.645 46.476 179.065 46.596 179.625 46.596C179.953 46.596 180.269 46.544 180.573 46.44C180.877 46.336 181.137 46.188 181.353 45.996L182.133 47.232C181.757 47.528 181.333 47.748 180.861 47.892C180.397 48.028 179.921 48.096 179.433 48.096Z" fill="#424B8A"/>
<defs>
<linearGradient id="paint0_linear_1133_2095" x1="0" y1="0" x2="23" y2="23" gradientUnits="userSpaceOnUse">
<stop stop-color="#21C0E2"/>
<stop offset="0.53125" stop-color="#7B50E5"/>
<stop offset="1" stop-color="#CF1580"/>
</linearGradient>
<linearGradient id="paint1_linear_1133_2095" x1="0" y1="0" x2="23" y2="23" gradientUnits="userSpaceOnUse">
<stop stop-color="#21C0E2"/>
<stop offset="0.53125" stop-color="#7B50E5"/>
<stop offset="1" stop-color="#CF1580"/>
</linearGradient>
<linearGradient id="paint2_linear_1133_2095" x1="49.3628" y1="0" x2="153.285" y2="67.9254" gradientUnits="userSpaceOnUse">
<stop stop-color="#18CCE2"/>
<stop offset="0.53125" stop-color="#9267ED"/>
<stop offset="1" stop-color="#DA0E73"/>
</linearGradient>
</defs>
</svg>
