<svg width="24" height="24" viewBox="0 0 24 24" fill="none" xmlns="http://www.w3.org/2000/svg">
<path d="M3 6.75C3 5.75544 3.39509 4.80161 4.09835 4.09835C4.80161 3.39509 5.75544 3 6.75 3H17.253C18.2476 3 19.2014 3.39509 19.9046 4.09835C20.6079 4.80161 21.003 5.75544 21.003 6.75V10.5022L21 10.4992C20.4273 10.0689 19.7959 9.72285 19.125 9.47175V7.5H4.875V17.25C4.875 17.7473 5.07254 18.2242 5.42417 18.5758C5.77581 18.9275 6.25272 19.125 6.75 19.125H9.4725C9.72362 19.7959 10.0696 20.4273 10.5 21L10.5023 21.003H6.75C5.75544 21.003 4.80161 20.6079 4.09835 19.9046C3.39509 19.2014 3 18.2476 3 17.253V6.75ZM12.5077 21.4275L12.5422 21.3105C12.6573 20.9207 12.692 20.5115 12.6441 20.1079C12.5962 19.7043 12.4668 19.3146 12.2638 18.9625C12.0607 18.6104 11.7883 18.3033 11.4629 18.0597C11.1375 17.8161 10.766 17.6412 10.371 17.5455C10.2772 16.8607 10.2949 16.1652 10.4235 15.486C10.8148 15.3888 11.1824 15.2137 11.5045 14.9713C11.8266 14.7288 12.0965 14.4239 12.2981 14.0748C12.4998 13.7257 12.6289 13.3395 12.678 12.9393C12.727 12.5392 12.6949 12.1332 12.5835 11.7457C13.1075 11.2944 13.7012 10.9309 14.3415 10.6695C14.6219 10.9637 14.959 11.1978 15.3326 11.3577C15.7062 11.5176 16.1084 11.6 16.5147 11.5998C16.9211 11.5996 17.3232 11.5168 17.6966 11.3565C18.07 11.1962 18.407 10.9617 18.687 10.6672L18.771 10.5787C19.3962 10.8119 19.978 11.148 20.4923 11.5732L20.4578 11.6895C20.3427 12.0793 20.308 12.4885 20.3559 12.8921C20.4038 13.2957 20.5332 13.6854 20.7362 14.0375C20.9393 14.3896 21.2117 14.6967 21.5371 14.9403C21.8625 15.1839 22.234 15.3588 22.629 15.4545C22.723 16.1396 22.7052 16.8353 22.5765 17.5147C22.1852 17.6119 21.8176 17.787 21.4955 18.0295C21.1734 18.2719 20.9035 18.5768 20.7019 18.926C20.5002 19.2751 20.3711 19.6613 20.322 20.0614C20.273 20.4616 20.3051 20.8675 20.4165 21.255C19.8925 21.7064 19.2988 22.0698 18.6585 22.3312C18.3781 22.0371 18.041 21.8029 17.6674 21.643C17.2938 21.4831 16.8916 21.4008 16.4853 21.401C16.0789 21.4012 15.6768 21.484 15.3034 21.6443C14.93 21.8046 14.593 22.039 14.313 22.3335L14.229 22.4212C13.6038 22.1884 13.022 21.8525 12.5077 21.4275ZM15.6353 17.9992C16.4348 18.4612 17.4705 18.1642 17.9482 17.3362C18.4267 16.509 18.1657 15.4627 17.3655 15.0015C16.5652 14.5395 15.5295 14.8365 15.0518 15.6637C14.5733 16.4917 14.835 17.5372 15.6353 17.9992Z" fill="current"/>
</svg>
