<svg width="24" height="24" viewBox="0 0 24 24" fill="none" xmlns="http://www.w3.org/2000/svg">
<path d="M6 18.573C8.206 18.573 10 16.779 10 14.573V4.428L19 7.7V15.13C18.3949 14.7695 17.7044 14.5772 17 14.573C14.794 14.573 13 16.367 13 18.573C13 20.779 14.794 22.573 17 22.573C19.206 22.573 21 20.779 21 18.573V7C21.0001 6.79483 20.937 6.5946 20.8193 6.42657C20.7016 6.25855 20.5349 6.1309 20.342 6.061L9.342 2.061C9.19099 2.0058 9.02889 1.98786 8.86947 2.0087C8.71005 2.02955 8.55801 2.08857 8.42627 2.18074C8.29454 2.27292 8.187 2.39553 8.11279 2.53816C8.03857 2.68079 7.99988 2.83922 8 3V11.13C7.39487 10.7695 6.70439 10.5772 6 10.573C3.794 10.573 2 12.367 2 14.573C2 16.779 3.794 18.573 6 18.573Z" fill="current"/>
</svg>
