<svg width="24" height="24" viewBox="0 0 24 24" fill="none" xmlns="http://www.w3.org/2000/svg">
<path fill-rule="evenodd" clip-rule="evenodd" d="M18.1662 3.24893C19.4278 2.53751 21 3.43566 21 4.86971V16.5905C21 18.0236 19.4287 18.9227 18.1662 18.2113L14.3702 16.0732V5.38694L18.1662 3.24893ZM12.4759 6.06195H7.74036C6.56598 6.06079 5.43305 6.48982 4.56152 7.26575C3.68998 8.04168 3.14201 9.10916 3.02399 10.2609C2.90596 11.4127 3.2263 12.5667 3.92282 13.4987C4.61934 14.4308 5.64235 15.0745 6.79324 15.3049V18.6659C6.79324 19.285 7.0427 19.8786 7.48675 20.3164C7.9308 20.7541 8.53305 21 9.16103 21C9.78901 21 10.3913 20.7541 10.8353 20.3164C11.2794 19.8786 11.5288 19.285 11.5288 18.6659V15.3982H12.4759V6.06195Z" fill="current"/>
</svg>
