<svg width="24" height="24" viewBox="0 0 24 24" fill="none" xmlns="http://www.w3.org/2000/svg">
<path d="M8.51659 3.29139H6.77486C6.31293 3.29139 5.86992 3.47489 5.54328 3.80153C5.21664 4.12817 5.03314 4.57118 5.03314 5.03311V18.9669C5.03314 19.4288 5.21664 19.8718 5.54328 20.1985C5.86992 20.5251 6.31293 20.7086 6.77486 20.7086H8.51659C8.97852 20.7086 9.42153 20.5251 9.74817 20.1985C10.0748 19.8718 10.2583 19.4288 10.2583 18.9669V5.03311C10.2583 4.57118 10.0748 4.12817 9.74817 3.80153C9.42153 3.47489 8.97852 3.29139 8.51659 3.29139ZM17.2252 3.29139H15.4835C15.0215 3.29139 14.5785 3.47489 14.2519 3.80153C13.9253 4.12817 13.7418 4.57118 13.7418 5.03311V18.9669C13.7418 19.4288 13.9253 19.8718 14.2519 20.1985C14.5785 20.5251 15.0215 20.7086 15.4835 20.7086H17.2252C17.6871 20.7086 18.1301 20.5251 18.4568 20.1985C18.7834 19.8718 18.9669 19.4288 18.9669 18.9669V5.03311C18.9669 4.57118 18.7834 4.12817 18.4568 3.80153C18.1301 3.47489 17.6871 3.29139 17.2252 3.29139Z" fill="current"/>
</svg>
