<svg width="24" height="24" viewBox="0 0 24 24" fill="none" xmlns="http://www.w3.org/2000/svg">
<path d="M3.30764 9.28943H16.384C17.1032 9.28943 17.6917 9.8845 17.6917 10.6118C17.6917 11.3391 17.1032 11.9342 16.384 11.9342H3.30764C2.58844 11.9342 2 11.3391 2 10.6118C2 9.8845 2.58844 9.28943 3.30764 9.28943ZM3.30764 4H16.384C17.1032 4 17.6917 4.59506 17.6917 5.32236C17.6917 6.04966 17.1032 6.64472 16.384 6.64472H3.30764C2.58844 6.64472 2 6.04966 2 5.32236C2 4.59506 2.58844 4 3.30764 4ZM3.30764 14.5789H11.1535C11.8727 14.5789 12.4611 15.1739 12.4611 15.9012C12.4611 16.6285 11.8727 17.2236 11.1535 17.2236H3.30764C2.58844 17.2236 2 16.6285 2 15.9012C2 15.1739 2.58844 14.5789 3.30764 14.5789ZM15.0764 15.7425V21.3361C15.0764 21.8518 15.6256 22.1692 16.0702 21.9047L20.6862 19.1013C21.1046 18.8501 21.1046 18.2286 20.6862 17.9641L16.0702 15.1607C15.9693 15.1024 15.855 15.0719 15.7388 15.0722C15.6225 15.0726 15.5084 15.1037 15.4078 15.1626C15.3073 15.2215 15.2237 15.3061 15.1655 15.4078C15.1074 15.5096 15.0766 15.625 15.0764 15.7425Z" fill="current"/>
</svg>
