<svg width="24" height="24" viewBox="0 0 24 24" fill="none" xmlns="http://www.w3.org/2000/svg">
<path d="M5.4 12H7.6V9.75H5.4V12ZM5.4 16.5H14.2V14.25H5.4V16.5ZM16.4 16.5H18.6V14.25H16.4V16.5ZM9.8 12H18.6V9.75H9.8V12ZM3.2 21C2.595 21 2.07727 20.7799 1.6468 20.3396C1.2156 19.8986 1 19.3688 1 18.75V5.25C1 4.63125 1.2156 4.10175 1.6468 3.6615C2.07727 3.2205 2.595 3 3.2 3H20.8C21.405 3 21.9231 3.2205 22.3543 3.6615C22.7848 4.10175 23 4.63125 23 5.25V18.75C23 19.3688 22.7848 19.8986 22.3543 20.3396C21.9231 20.7799 21.405 21 20.8 21H3.2ZM3.2 18.75H20.8V5.25H3.2V18.75ZM3.2 18.75V5.25V18.75Z" fill="current"/>
</svg>
