<svg width="32" height="32" viewBox="0 0 32 32" fill="none" xmlns="http://www.w3.org/2000/svg">
<path d="M8.10667 16.5067C8.17013 16.6704 8.26528 16.8199 8.38667 16.9467L15.0533 23.6134C15.1777 23.7377 15.3252 23.8363 15.4877 23.9036C15.6501 23.9709 15.8242 24.0055 16 24.0055C16.3551 24.0055 16.6956 23.8644 16.9467 23.6134C17.071 23.4891 17.1696 23.3415 17.2369 23.179C17.3042 23.0166 17.3388 22.8425 17.3388 22.6667C17.3388 22.3116 17.1977 21.9711 16.9467 21.72L12.5467 17.3334L22.6667 17.3334C23.0203 17.3334 23.3594 17.1929 23.6095 16.9428C23.8595 16.6928 24 16.3537 24 16C24 15.6464 23.8595 15.3073 23.6095 15.0572C23.3594 14.8072 23.0203 14.6667 22.6667 14.6667L12.5467 14.6667L16.9467 10.28C17.0716 10.1561 17.1708 10.0086 17.2385 9.84614C17.3062 9.68366 17.3411 9.50939 17.3411 9.33337C17.3411 9.15736 17.3062 8.98308 17.2385 8.8206C17.1708 8.65812 17.0716 8.51066 16.9467 8.38671C16.8227 8.26174 16.6752 8.16254 16.5128 8.09485C16.3503 8.02716 16.176 7.99231 16 7.99231C15.824 7.99231 15.6497 8.02716 15.4872 8.09485C15.3248 8.16254 15.1773 8.26173 15.0533 8.38671L8.38667 15.0534C8.26528 15.1802 8.17013 15.3297 8.10667 15.4934C7.97331 15.818 7.97331 16.1821 8.10667 16.5067Z" fill="#556FE5"/>
</svg>
