<svg width="32" height="32" viewBox="0 0 32 32" fill="none" xmlns="http://www.w3.org/2000/svg">
<path d="M23.8933 15.4933C23.8299 15.3296 23.7347 15.1801 23.6133 15.0533L16.9467 8.38663C16.8223 8.26231 16.6748 8.1637 16.5123 8.09642C16.3499 8.02914 16.1758 7.99451 16 7.99451C15.6449 7.99451 15.3044 8.13556 15.0533 8.38663C14.929 8.51095 14.8304 8.65853 14.7631 8.82096C14.6958 8.98339 14.6612 9.15748 14.6612 9.3333C14.6612 9.68836 14.8023 10.0289 15.0533 10.28L19.4533 14.6666H9.33333C8.97971 14.6666 8.64057 14.8071 8.39052 15.0572C8.14048 15.3072 8 15.6463 8 16C8 16.3536 8.14048 16.6927 8.39052 16.9428C8.64057 17.1928 8.97971 17.3333 9.33333 17.3333H19.4533L15.0533 21.72C14.9284 21.8439 14.8292 21.9914 14.7615 22.1539C14.6938 22.3163 14.6589 22.4906 14.6589 22.6666C14.6589 22.8426 14.6938 23.0169 14.7615 23.1794C14.8292 23.3419 14.9284 23.4893 15.0533 23.6133C15.1773 23.7383 15.3248 23.8375 15.4872 23.9052C15.6497 23.9728 15.824 24.0077 16 24.0077C16.176 24.0077 16.3503 23.9728 16.5128 23.9052C16.6752 23.8375 16.8227 23.7383 16.9467 23.6133L23.6133 16.9466C23.7347 16.8198 23.8299 16.6703 23.8933 16.5066C24.0267 16.182 24.0267 15.8179 23.8933 15.4933Z" fill="#556FE5"/>
</svg>
