<svg width="20" height="20" viewBox="0 0 20 20" fill="none" xmlns="http://www.w3.org/2000/svg">
<path d="M14.1667 9.16666H7.84166L10.5917 6.42499C10.7486 6.26807 10.8367 6.05524 10.8367 5.83333C10.8367 5.61141 10.7486 5.39858 10.5917 5.24166C10.4347 5.08474 10.2219 4.99658 10 4.99658C9.77808 4.99658 9.56525 5.08474 9.40833 5.24166L5.24166 9.40833C5.16579 9.48758 5.10632 9.58103 5.06666 9.68333C4.98331 9.88621 4.98331 10.1138 5.06666 10.3167C5.10632 10.419 5.16579 10.5124 5.24166 10.5917L9.40833 14.7583C9.4858 14.8364 9.57797 14.8984 9.67951 14.9407C9.78106 14.983 9.88999 15.0048 10 15.0048C10.11 15.0048 10.2189 14.983 10.3205 14.9407C10.422 14.8984 10.5142 14.8364 10.5917 14.7583C10.6698 14.6809 10.7318 14.5887 10.7741 14.4871C10.8164 14.3856 10.8382 14.2767 10.8382 14.1667C10.8382 14.0566 10.8164 13.9477 10.7741 13.8462C10.7318 13.7446 10.6698 13.6525 10.5917 13.575L7.84166 10.8333H14.1667C14.3877 10.8333 14.5996 10.7455 14.7559 10.5892C14.9122 10.433 15 10.221 15 9.99999C15 9.77898 14.9122 9.56702 14.7559 9.41074C14.5996 9.25446 14.3877 9.16666 14.1667 9.16666Z" fill="white"/>
</svg>
