<svg width="24" height="24" viewBox="0 0 24 24" fill="none" xmlns="http://www.w3.org/2000/svg">
<path d="M14.8299 11.29L10.5899 7.04999C10.497 6.95627 10.3864 6.88187 10.2645 6.8311C10.1427 6.78033 10.012 6.7542 9.87994 6.7542C9.74793 6.7542 9.61723 6.78033 9.49537 6.8311C9.37351 6.88187 9.26291 6.95627 9.16994 7.04999C8.98369 7.23736 8.87915 7.49081 8.87915 7.75499C8.87915 8.01918 8.98369 8.27263 9.16994 8.45999L12.7099 12L9.16994 15.54C8.98369 15.7274 8.87915 15.9808 8.87915 16.245C8.87915 16.5092 8.98369 16.7626 9.16994 16.95C9.26338 17.0427 9.3742 17.116 9.49604 17.1658C9.61787 17.2155 9.74834 17.2408 9.87994 17.24C10.0115 17.2408 10.142 17.2155 10.2638 17.1658C10.3857 17.116 10.4965 17.0427 10.5899 16.95L14.8299 12.71C14.9237 12.617 14.9981 12.5064 15.0488 12.3846C15.0996 12.2627 15.1257 12.132 15.1257 12C15.1257 11.868 15.0996 11.7373 15.0488 11.6154C14.9981 11.4936 14.9237 11.383 14.8299 11.29Z" fill="#454B6B"/>
</svg>
