<svg width="14" height="14" viewBox="0 0 14 14" fill="none" xmlns="http://www.w3.org/2000/svg">
<path d="M6.99998 6.41667C6.84527 6.41667 6.6969 6.47812 6.5875 6.58752C6.47811 6.69692 6.41665 6.84529 6.41665 7V8.75C6.41665 8.90471 6.47811 9.05308 6.5875 9.16248C6.6969 9.27187 6.84527 9.33333 6.99998 9.33333C7.15469 9.33333 7.30307 9.27187 7.41246 9.16248C7.52186 9.05308 7.58332 8.90471 7.58332 8.75V7C7.58332 6.84529 7.52186 6.69692 7.41246 6.58752C7.30307 6.47812 7.15469 6.41667 6.99998 6.41667ZM6.99998 4.66667C6.88461 4.66667 6.77183 4.70088 6.6759 4.76498C6.57997 4.82907 6.5052 4.92018 6.46105 5.02677C6.4169 5.13336 6.40535 5.25065 6.42786 5.3638C6.45037 5.47696 6.50592 5.5809 6.5875 5.66248C6.66909 5.74406 6.77303 5.79962 6.88618 5.82212C6.99934 5.84463 7.11663 5.83308 7.22322 5.78893C7.32981 5.74478 7.42091 5.67001 7.48501 5.57408C7.5491 5.47815 7.58332 5.36537 7.58332 5.25C7.58332 5.09529 7.52186 4.94692 7.41246 4.83752C7.30307 4.72812 7.15469 4.66667 6.99998 4.66667ZM6.99998 1.16667C6.23394 1.16667 5.4754 1.31755 4.76766 1.6107C4.05993 1.90385 3.41687 2.33353 2.87519 2.87521C1.78123 3.96917 1.16665 5.4529 1.16665 7C1.16155 8.34699 1.62795 9.65331 2.48498 10.6925L1.31832 11.8592C1.23737 11.9412 1.18254 12.0454 1.16074 12.1585C1.13894 12.2717 1.15114 12.3888 1.19582 12.495C1.24427 12.6 1.32281 12.6882 1.42148 12.7484C1.52014 12.8086 1.63448 12.8382 1.74998 12.8333H6.99998C8.54708 12.8333 10.0308 12.2188 11.1248 11.1248C12.2187 10.0308 12.8333 8.5471 12.8333 7C12.8333 5.4529 12.2187 3.96917 11.1248 2.87521C10.0308 1.78125 8.54708 1.16667 6.99998 1.16667V1.16667ZM6.99998 11.6667H3.15582L3.69832 11.1242C3.75343 11.0701 3.79728 11.0057 3.82732 10.9346C3.85736 10.8635 3.873 10.7872 3.87332 10.71C3.87112 10.5561 3.80822 10.4094 3.69832 10.3017C2.93449 9.53869 2.45883 8.53448 2.35239 7.46013C2.24594 6.38578 2.51528 5.30775 3.11453 4.40972C3.71378 3.51169 4.60586 2.84921 5.63878 2.53515C6.67171 2.22109 7.78157 2.27489 8.77928 2.68737C9.77698 3.09985 10.6008 3.84549 11.1104 4.79727C11.62 5.74905 11.7838 6.84807 11.574 7.90709C11.3641 8.96611 10.7936 9.91961 9.95955 10.6051C9.12552 11.2907 8.0796 11.6658 6.99998 11.6667V11.6667Z" fill="white"/>
</svg>
