<svg width="19" height="18" viewBox="0 0 19 18" fill="none" xmlns="http://www.w3.org/2000/svg">
<path d="M16.4167 10.5C16.2178 10.5 16.027 10.579 15.8864 10.7197C15.7457 10.8603 15.6667 11.0511 15.6667 11.25V14.25C15.6667 14.4489 15.5877 14.6397 15.447 14.7803C15.3064 14.921 15.1156 15 14.9167 15H4.41669C4.21777 15 4.02701 14.921 3.88636 14.7803C3.7457 14.6397 3.66669 14.4489 3.66669 14.25V11.25C3.66669 11.0511 3.58767 10.8603 3.44702 10.7197C3.30636 10.579 3.1156 10.5 2.91669 10.5C2.71777 10.5 2.52701 10.579 2.38636 10.7197C2.2457 10.8603 2.16669 11.0511 2.16669 11.25V14.25C2.16669 14.8467 2.40374 15.419 2.8257 15.841C3.24765 16.2629 3.81995 16.5 4.41669 16.5H14.9167C15.5134 16.5 16.0857 16.2629 16.5077 15.841C16.9296 15.419 17.1667 14.8467 17.1667 14.25V11.25C17.1667 11.0511 17.0877 10.8603 16.947 10.7197C16.8064 10.579 16.6156 10.5 16.4167 10.5ZM9.13419 11.7825C9.20551 11.8508 9.28962 11.9043 9.38169 11.94C9.47146 11.9797 9.56853 12.0002 9.66669 12.0002C9.76484 12.0002 9.86191 11.9797 9.95169 11.94C10.0438 11.9043 10.1279 11.8508 10.1992 11.7825L13.1992 8.7825C13.3404 8.64127 13.4198 8.44973 13.4198 8.25C13.4198 8.05027 13.3404 7.85873 13.1992 7.7175C13.058 7.57627 12.8664 7.49693 12.6667 7.49693C12.467 7.49693 12.2754 7.57627 12.1342 7.7175L10.4167 9.4425V2.25C10.4167 2.05109 10.3377 1.86032 10.197 1.71967C10.0564 1.57902 9.8656 1.5 9.66669 1.5C9.46777 1.5 9.27701 1.57902 9.13636 1.71967C8.9957 1.86032 8.91669 2.05109 8.91669 2.25V9.4425L7.19919 7.7175C7.12926 7.64757 7.04624 7.5921 6.95487 7.55426C6.86351 7.51641 6.76558 7.49693 6.66669 7.49693C6.56779 7.49693 6.46987 7.51641 6.3785 7.55426C6.28713 7.5921 6.20412 7.64757 6.13419 7.7175C6.06426 7.78743 6.00879 7.87045 5.97094 7.96181C5.9331 8.05318 5.91362 8.15111 5.91362 8.25C5.91362 8.34889 5.9331 8.44682 5.97094 8.53819C6.00879 8.62955 6.06426 8.71257 6.13419 8.7825L9.13419 11.7825Z" fill="white"/>
</svg>
