<svg width="30" height="30" viewBox="0 0 30 30" fill="none" xmlns="http://www.w3.org/2000/svg">
<path d="M25 11.175C24.987 11.0602 24.9618 10.947 24.925 10.8375V10.725C24.8649 10.5965 24.7847 10.4783 24.6875 10.375V10.375L17.1875 2.875C17.0842 2.77777 16.966 2.6976 16.8375 2.6375H16.725L16.325 2.5H8.75C7.75544 2.5 6.80161 2.89509 6.09835 3.59835C5.39509 4.30161 5 5.25544 5 6.25V23.75C5 24.7446 5.39509 25.6984 6.09835 26.4017C6.80161 27.1049 7.75544 27.5 8.75 27.5H21.25C22.2446 27.5 23.1984 27.1049 23.9017 26.4017C24.6049 25.6984 25 24.7446 25 23.75V11.25C25 11.25 25 11.25 25 11.175ZM17.5 6.7625L20.7375 10H17.5V6.7625ZM22.5 23.75C22.5 24.0815 22.3683 24.3995 22.1339 24.6339C21.8995 24.8683 21.5815 25 21.25 25H8.75C8.41848 25 8.10054 24.8683 7.86612 24.6339C7.6317 24.3995 7.5 24.0815 7.5 23.75V6.25C7.5 5.91848 7.6317 5.60054 7.86612 5.36612C8.10054 5.1317 8.41848 5 8.75 5H15V11.25C15 11.5815 15.1317 11.8995 15.3661 12.1339C15.6005 12.3683 15.9185 12.5 16.25 12.5H22.5V23.75Z" fill="#556FE5"/>
</svg>
