<svg width="30" height="30" viewBox="0 0 30 30" fill="none" xmlns="http://www.w3.org/2000/svg">
<path d="M23.75 6.875H15.9L15.5 5.625C15.2407 4.89154 14.7597 4.25688 14.1236 3.80895C13.4876 3.36102 12.7279 3.122 11.95 3.125H6.25C5.25544 3.125 4.30161 3.52009 3.59835 4.22335C2.89509 4.92661 2.5 5.88044 2.5 6.875V23.125C2.5 24.1196 2.89509 25.0734 3.59835 25.7767C4.30161 26.4799 5.25544 26.875 6.25 26.875H23.75C24.7446 26.875 25.6984 26.4799 26.4017 25.7767C27.1049 25.0734 27.5 24.1196 27.5 23.125V10.625C27.5 9.63044 27.1049 8.67661 26.4017 7.97335C25.6984 7.27009 24.7446 6.875 23.75 6.875ZM25 23.125C25 23.4565 24.8683 23.7745 24.6339 24.0089C24.3995 24.2433 24.0815 24.375 23.75 24.375H6.25C5.91848 24.375 5.60054 24.2433 5.36612 24.0089C5.1317 23.7745 5 23.4565 5 23.125V6.875C5 6.54348 5.1317 6.22554 5.36612 5.99111C5.60054 5.75669 5.91848 5.625 6.25 5.625H11.95C12.2121 5.62432 12.4677 5.70602 12.6808 5.85855C12.8939 6.01108 13.0536 6.22672 13.1375 6.475L13.8125 8.525C13.8964 8.77327 14.0561 8.98892 14.2692 9.14145C14.4823 9.29397 14.7379 9.37567 15 9.375H23.75C24.0815 9.375 24.3995 9.50669 24.6339 9.74111C24.8683 9.97554 25 10.2935 25 10.625V23.125Z" fill="#556FE5"/>
</svg>
