<svg width="18" height="18" viewBox="0 0 18 18" fill="none" xmlns="http://www.w3.org/2000/svg">
<path d="M9.00002 1.68503C7.21913 1.6851 5.49637 2.31886 4.13999 3.47291C2.78362 4.62696 1.88215 6.22599 1.59687 7.98389C1.31159 9.74179 1.66113 11.5438 2.58295 13.0676C3.50476 14.5914 4.93869 15.7374 6.62816 16.3006C7.00316 16.3663 7.14379 16.1413 7.14379 15.9444C7.14379 15.7663 7.1344 15.1756 7.1344 14.5475C5.25002 14.8944 4.76252 14.0882 4.61252 13.6663C4.44608 13.256 4.18223 12.8924 3.84377 12.6069C3.58127 12.4663 3.20627 12.1194 3.83439 12.11C4.07423 12.1361 4.30426 12.2195 4.50499 12.3533C4.70573 12.4872 4.87124 12.6674 4.98752 12.8788C5.0901 13.063 5.22803 13.2253 5.39341 13.3561C5.5588 13.487 5.74838 13.584 5.9513 13.6415C6.15421 13.6989 6.36648 13.7158 6.57593 13.6911C6.78538 13.6664 6.9879 13.6006 7.17188 13.4975C7.20435 13.1162 7.37428 12.7597 7.65002 12.4944C5.98127 12.3069 4.23752 11.66 4.23752 8.7913C4.22698 8.04591 4.50203 7.32473 5.00627 6.77568C4.77698 6.12784 4.80381 5.41689 5.08127 4.78818C5.08127 4.78818 5.70937 4.59129 7.14377 5.55693C8.37099 5.21941 9.66656 5.21941 10.8938 5.55693C12.3281 4.58193 12.9563 4.78818 12.9563 4.78818C13.2338 5.41688 13.2606 6.12785 13.0313 6.77568C13.537 7.32379 13.8123 8.0456 13.8 8.7913C13.8 11.6694 12.0469 12.3069 10.3781 12.4944C10.5571 12.6758 10.695 12.8936 10.7823 13.1331C10.8697 13.3725 10.9045 13.6279 10.8844 13.8819C10.8844 14.8851 10.875 15.6913 10.875 15.9444C10.875 16.1413 11.0156 16.3757 11.3906 16.3007C13.0771 15.7328 14.5069 14.5841 15.4248 13.0596C16.3427 11.535 16.6889 9.7339 16.4017 7.97771C16.1144 6.22151 15.2124 4.62456 13.8566 3.47191C12.5008 2.31927 10.7796 1.68595 9.00002 1.68503V1.68503Z" fill="white"/>
</svg>
