<svg width="20" height="20" viewBox="0 0 20 20" fill="none" xmlns="http://www.w3.org/2000/svg">
<path d="M13.575 5.24166L7.74167 11.075C7.66356 11.1525 7.60156 11.2446 7.55926 11.3462C7.51695 11.4477 7.49517 11.5566 7.49517 11.6667C7.49517 11.7767 7.51695 11.8856 7.55926 11.9871C7.60156 12.0887 7.66356 12.1809 7.74167 12.2583C7.81914 12.3364 7.9113 12.3984 8.01285 12.4407C8.1144 12.483 8.22332 12.5048 8.33333 12.5048C8.44334 12.5048 8.55226 12.483 8.65381 12.4407C8.75536 12.3984 8.84753 12.3364 8.925 12.2583L14.7583 6.42499C14.9153 6.26807 15.0034 6.05524 15.0034 5.83333C15.0034 5.61141 14.9153 5.39858 14.7583 5.24166C14.6014 5.08474 14.3886 4.99658 14.1667 4.99658C13.9447 4.99658 13.7319 5.08474 13.575 5.24166ZM17.1167 2.88333C16.7296 2.4953 16.2698 2.18744 15.7636 1.97739C15.2574 1.76733 14.7147 1.65921 14.1667 1.65921C13.6186 1.65921 13.0759 1.76733 12.5697 1.97739C12.0635 2.18744 11.6037 2.4953 11.2167 2.88333L4.40833 9.74166C4.25438 9.89688 4.16759 10.1064 4.16667 10.325V14.65L1.90833 16.9083C1.83023 16.9858 1.76823 17.078 1.72592 17.1795C1.68362 17.2811 1.66183 17.39 1.66183 17.5C1.66183 17.61 1.68362 17.7189 1.72592 17.8205C1.76823 17.922 1.83023 18.0142 1.90833 18.0917C1.9858 18.1698 2.07797 18.2318 2.17952 18.2741C2.28107 18.3164 2.38999 18.3382 2.5 18.3382C2.61001 18.3382 2.71893 18.3164 2.82048 18.2741C2.92203 18.2318 3.0142 18.1698 3.09167 18.0917L5.35 15.8333H9.675C9.89362 15.8324 10.1031 15.7456 10.2583 15.5917L17.1167 8.78333C17.5047 8.39628 17.8126 7.93648 18.0226 7.43027C18.2327 6.92406 18.3408 6.38139 18.3408 5.83333C18.3408 5.28526 18.2327 4.74259 18.0226 4.23638C17.8126 3.73017 17.5047 3.27037 17.1167 2.88333V2.88333ZM15.9333 7.59999L9.33333 14.1667H5.83333V10.6667L12.4 4.06666C12.8739 3.62506 13.5007 3.38465 14.1484 3.39608C14.7961 3.4075 15.414 3.66988 15.8721 4.12792C16.3301 4.58596 16.5925 5.20391 16.6039 5.85158C16.6153 6.49925 16.3749 7.12608 15.9333 7.59999V7.59999Z" fill="white"/>
</svg>
