<svg width="16" height="16" viewBox="0 0 16 16" fill="none" xmlns="http://www.w3.org/2000/svg">
<path d="M8.07339 10.26L5.48672 12.8467C5.17355 13.1489 4.75529 13.3179 4.32005 13.3179C3.88481 13.3179 3.46656 13.1489 3.15339 12.8467C2.99979 12.6937 2.87792 12.5119 2.79476 12.3117C2.7116 12.1115 2.66879 11.8968 2.66879 11.68C2.66879 11.4632 2.7116 11.2486 2.79476 11.0484C2.87792 10.8482 2.99979 10.6663 3.15339 10.5134L5.74005 7.92669C5.86559 7.80115 5.93612 7.63089 5.93612 7.45336C5.93612 7.27582 5.86559 7.10556 5.74005 6.98002C5.61452 6.85449 5.44426 6.78396 5.26672 6.78396C5.08919 6.78396 4.91892 6.85449 4.79339 6.98002L2.20672 9.57335C1.68562 10.1406 1.4038 10.8871 1.4201 11.6572C1.43641 12.4272 1.74957 13.1612 2.29421 13.7059C2.83884 14.2505 3.57283 14.5637 4.34289 14.58C5.11294 14.5963 5.85952 14.3145 6.42672 13.7934L9.02005 11.2067C9.14559 11.0812 9.21612 10.9109 9.21612 10.7334C9.21612 10.5558 9.14559 10.3856 9.02005 10.26C8.89452 10.1345 8.72426 10.064 8.54672 10.064C8.36919 10.064 8.19892 10.1345 8.07339 10.26V10.26ZM13.7934 2.20669C13.2326 1.64936 12.474 1.33655 11.6834 1.33655C10.8927 1.33655 10.1342 1.64936 9.57339 2.20669L6.98005 4.79336C6.9179 4.85551 6.86859 4.92931 6.83495 5.01052C6.80131 5.09174 6.78399 5.17878 6.78399 5.26669C6.78399 5.3546 6.80131 5.44164 6.83495 5.52285C6.86859 5.60407 6.9179 5.67786 6.98005 5.74002C7.04221 5.80218 7.11601 5.85149 7.19722 5.88513C7.27844 5.91877 7.36548 5.93608 7.45339 5.93608C7.54129 5.93608 7.62834 5.91877 7.70955 5.88513C7.79077 5.85149 7.86456 5.80218 7.92672 5.74002L10.5134 3.15336C10.8266 2.85111 11.2448 2.68219 11.6801 2.68219C12.1153 2.68219 12.5335 2.85111 12.8467 3.15336C13.0003 3.30635 13.1222 3.48816 13.2054 3.68837C13.2885 3.88857 13.3313 4.10323 13.3313 4.32002C13.3313 4.53681 13.2885 4.75147 13.2054 4.95168C13.1222 5.15188 13.0003 5.3337 12.8467 5.48669L10.2601 8.07335C10.1976 8.13533 10.148 8.20906 10.1141 8.2903C10.0803 8.37154 10.0629 8.45868 10.0629 8.54669C10.0629 8.6347 10.0803 8.72183 10.1141 8.80307C10.148 8.88431 10.1976 8.95805 10.2601 9.02002C10.322 9.08251 10.3958 9.1321 10.477 9.16595C10.5582 9.1998 10.6454 9.21722 10.7334 9.21722C10.8214 9.21722 10.9085 9.1998 10.9898 9.16595C11.071 9.1321 11.1447 9.08251 11.2067 9.02002L13.7934 6.42669C14.3507 5.86588 14.6635 5.10734 14.6635 4.31669C14.6635 3.52604 14.3507 2.7675 13.7934 2.20669V2.20669ZM5.88672 10.1134C5.94901 10.1751 6.02289 10.224 6.10412 10.2572C6.18534 10.2904 6.27232 10.3072 6.36005 10.3067C6.44779 10.3072 6.53477 10.2904 6.61599 10.2572C6.69722 10.224 6.77109 10.1751 6.83339 10.1134L10.1134 6.83336C10.2389 6.70782 10.3094 6.53756 10.3094 6.36002C10.3094 6.18249 10.2389 6.01222 10.1134 5.88669C9.98785 5.76115 9.81759 5.69063 9.64005 5.69063C9.46252 5.69063 9.29226 5.76115 9.16672 5.88669L5.88672 9.16669C5.82423 9.22866 5.77464 9.3024 5.74079 9.38364C5.70695 9.46488 5.68952 9.55201 5.68952 9.64002C5.68952 9.72803 5.70695 9.81517 5.74079 9.89641C5.77464 9.97765 5.82423 10.0514 5.88672 10.1134Z" fill="white"/>
</svg>
