<svg width="22" height="24" viewBox="0 0 22 24" fill="none" xmlns="http://www.w3.org/2000/svg">
<path fill-rule="evenodd" clip-rule="evenodd" d="M0 2C0 0.895431 0.895431 0 2 0C3.10457 0 4 0.895431 4 2V17C4 18.1046 3.10457 19 2 19C0.895431 19 0 18.1046 0 17V2ZM9 7C9 5.89543 9.89543 5 11 5C12.1046 5 13 5.89543 13 7V22C13 23.1046 12.1046 24 11 24C9.89543 24 9 23.1046 9 22V7ZM20 0C18.8954 0 18 0.895431 18 2V17C18 18.1046 18.8954 19 20 19C21.1046 19 22 18.1046 22 17V2C22 0.895431 21.1046 0 20 0Z" fill="white"/>
</svg>
