<svg width="84" height="84" viewBox="0 0 84 84" fill="none" xmlns="http://www.w3.org/2000/svg">
<path d="M73.5 17.5H70V14C70 13.0717 69.6313 12.1815 68.9749 11.5251C68.3185 10.8687 67.4283 10.5 66.5 10.5C65.5717 10.5 64.6815 10.8687 64.0251 11.5251C63.3687 12.1815 63 13.0717 63 14V17.5H21V14C21 13.0717 20.6313 12.1815 19.9749 11.5251C19.3185 10.8687 18.4283 10.5 17.5 10.5C16.5717 10.5 15.6815 10.8687 15.0251 11.5251C14.3687 12.1815 14 13.0717 14 14V17.5H10.5C9.57174 17.5 8.6815 17.8687 8.02513 18.5251C7.36875 19.1815 7 20.0717 7 21V42C7 42.9283 7.36875 43.8185 8.02513 44.4749C8.6815 45.1313 9.57174 45.5 10.5 45.5H14V70C14 70.9283 14.3687 71.8185 15.0251 72.4749C15.6815 73.1313 16.5717 73.5 17.5 73.5C18.4283 73.5 19.3185 73.1313 19.9749 72.4749C20.6313 71.8185 21 70.9283 21 70V45.5H63V70C63 70.9283 63.3687 71.8185 64.0251 72.4749C64.6815 73.1313 65.5717 73.5 66.5 73.5C67.4283 73.5 68.3185 73.1313 68.9749 72.4749C69.6313 71.8185 70 70.9283 70 70V45.5H73.5C74.4283 45.5 75.3185 45.1313 75.9749 44.4749C76.6313 43.8185 77 42.9283 77 42V21C77 20.0717 76.6313 19.1815 75.9749 18.5251C75.3185 17.8687 74.4283 17.5 73.5 17.5ZM14 33.32V24.5H22.82L14 33.32ZM18.69 38.5L32.69 24.5H44.345L30.345 38.5H18.69ZM40.215 38.5L54.215 24.5H65.345L51.345 38.5H40.215ZM70 38.5H61.215L70 29.715V38.5Z" fill="#454B6B"/>
</svg>
