<svg width="19" height="18" viewBox="0 0 19 18" fill="none" xmlns="http://www.w3.org/2000/svg">
<path d="M13.8333 11.25V3.75C13.8333 3.15326 13.5963 2.58097 13.1743 2.15901C12.7524 1.73705 12.1801 1.5 11.5833 1.5H4.08334C3.48661 1.5 2.91431 1.73705 2.49235 2.15901C2.0704 2.58097 1.83334 3.15326 1.83334 3.75V11.25C1.83334 11.8467 2.0704 12.419 2.49235 12.841C2.91431 13.2629 3.48661 13.5 4.08334 13.5H11.5833C12.1801 13.5 12.7524 13.2629 13.1743 12.841C13.5963 12.419 13.8333 11.8467 13.8333 11.25V11.25ZM3.33334 3.75C3.33334 3.55109 3.41236 3.36032 3.55301 3.21967C3.69367 3.07902 3.88443 3 4.08334 3H11.5833C11.7823 3 11.973 3.07902 12.1137 3.21967C12.2543 3.36032 12.3333 3.55109 12.3333 3.75V7.02L11.5233 6.2025C11.1633 5.84241 10.675 5.64008 10.1658 5.64V5.64C9.65698 5.64171 9.16928 5.8438 8.80834 6.2025L8.12584 6.885L7.51834 6.2775C7.1073 5.87305 6.55375 5.64638 5.97709 5.64638C5.40044 5.64638 4.84689 5.87305 4.43584 6.2775L3.33334 7.3875V3.75ZM3.42334 11.5875C3.36551 11.4843 3.33456 11.3683 3.33334 11.25V9.5025L5.49334 7.3425C5.55676 7.27878 5.63214 7.22822 5.71516 7.19371C5.79818 7.15921 5.88719 7.14145 5.97709 7.14145C6.06699 7.14145 6.15601 7.15921 6.23903 7.19371C6.32204 7.22822 6.39743 7.27878 6.46084 7.3425L7.08334 7.95L3.42334 11.5875ZM9.87334 7.2675C9.91035 7.22683 9.95555 7.19444 10.006 7.17247C10.0564 7.15049 10.1109 7.13943 10.1658 7.14V7.14C10.2208 7.13943 10.2753 7.15049 10.3257 7.17247C10.3761 7.19444 10.4213 7.22683 10.4583 7.2675L12.3333 9.135V11.25C12.3333 11.4489 12.2543 11.6397 12.1137 11.7803C11.973 11.921 11.7823 12 11.5833 12H5.13334L9.87334 7.2675ZM16.0833 4.5C15.8844 4.5 15.6937 4.57902 15.553 4.71967C15.4124 4.86032 15.3333 5.05109 15.3333 5.25V12.75C15.3333 13.3467 15.0963 13.919 14.6743 14.341C14.2524 14.7629 13.6801 15 13.0833 15H5.58334C5.38443 15 5.19367 15.079 5.05301 15.2197C4.91236 15.3603 4.83334 15.5511 4.83334 15.75C4.83334 15.9489 4.91236 16.1397 5.05301 16.2803C5.19367 16.421 5.38443 16.5 5.58334 16.5H13.0833C14.0779 16.5 15.0317 16.1049 15.735 15.4017C16.4383 14.6984 16.8333 13.7446 16.8333 12.75V5.25C16.8333 5.05109 16.7543 4.86032 16.6137 4.71967C16.473 4.57902 16.2823 4.5 16.0833 4.5Z" fill="white"/>
</svg>
