<svg width="14" height="14" viewBox="0 0 14 14" fill="none" xmlns="http://www.w3.org/2000/svg">
<path d="M11.6142 9.0475H8.97169C8.81698 9.0475 8.6686 9.10896 8.55921 9.21835C8.44981 9.32775 8.38835 9.47612 8.38835 9.63083C8.38835 9.78554 8.44981 9.93391 8.55921 10.0433C8.6686 10.1527 8.81698 10.2142 8.97169 10.2142H10.3717C9.72824 10.8866 8.89842 11.3513 7.98887 11.5485C7.07931 11.7457 6.13156 11.6664 5.26739 11.3209C4.40322 10.9754 3.66211 10.3793 3.13928 9.60935C2.61645 8.83939 2.33579 7.93069 2.33335 7C2.33335 6.84529 2.2719 6.69692 2.1625 6.58752C2.0531 6.47812 1.90473 6.41667 1.75002 6.41667C1.59531 6.41667 1.44694 6.47812 1.33754 6.58752C1.22815 6.69692 1.16669 6.84529 1.16669 7C1.16977 8.13913 1.50632 9.25243 2.13479 10.2025C2.76326 11.1526 3.65616 11.8979 4.70329 12.3464C5.75041 12.7949 6.90595 12.927 8.02728 12.7264C9.14861 12.5258 10.1867 12.0012 11.0134 11.2175V12.25C11.0134 12.4047 11.0748 12.5531 11.1842 12.6625C11.2936 12.7719 11.442 12.8333 11.5967 12.8333C11.7514 12.8333 11.8998 12.7719 12.0092 12.6625C12.1186 12.5531 12.18 12.4047 12.18 12.25V9.625C12.1786 9.47429 12.1189 9.32998 12.0134 9.22232C11.9079 9.11466 11.7648 9.05201 11.6142 9.0475ZM7.00002 1.16667C5.50458 1.17093 4.06789 1.74937 2.98669 2.7825V1.75C2.98669 1.59529 2.92523 1.44692 2.81583 1.33752C2.70644 1.22812 2.55806 1.16667 2.40335 1.16667C2.24864 1.16667 2.10027 1.22812 1.99087 1.33752C1.88148 1.44692 1.82002 1.59529 1.82002 1.75V4.375C1.82002 4.52971 1.88148 4.67808 1.99087 4.78748C2.10027 4.89687 2.24864 4.95833 2.40335 4.95833H5.02835C5.18306 4.95833 5.33144 4.89687 5.44083 4.78748C5.55023 4.67808 5.61169 4.52971 5.61169 4.375C5.61169 4.22029 5.55023 4.07192 5.44083 3.96252C5.33144 3.85312 5.18306 3.79167 5.02835 3.79167H3.62835C4.27146 3.11959 5.10074 2.65504 6.00975 2.45765C6.91877 2.26025 7.86603 2.33902 8.72996 2.68384C9.59388 3.02865 10.3351 3.62379 10.8583 4.39285C11.3816 5.16191 11.6631 6.06981 11.6667 7C11.6667 7.15471 11.7281 7.30308 11.8375 7.41248C11.9469 7.52187 12.0953 7.58333 12.25 7.58333C12.4047 7.58333 12.5531 7.52187 12.6625 7.41248C12.7719 7.30308 12.8334 7.15471 12.8334 7C12.8334 6.23395 12.6825 5.47541 12.3893 4.76768C12.0962 4.05995 11.6665 3.41688 11.1248 2.87521C10.5831 2.33353 9.94007 1.90385 9.23234 1.6107C8.52461 1.31755 7.76606 1.16667 7.00002 1.16667V1.16667Z" fill="white"/>
</svg>
