<svg width="18" height="18" viewBox="0 0 18 18" fill="none" xmlns="http://www.w3.org/2000/svg">
<path d="M13.5 10.5C13.0569 10.5029 12.6199 10.604 12.2205 10.7959C11.8211 10.9878 11.4692 11.2659 11.19 11.61L7.36501 9.84749C7.54485 9.29681 7.54485 8.70318 7.36501 8.15249L11.19 6.38999C11.6412 6.93447 12.2703 7.30205 12.9661 7.42787C13.662 7.55369 14.3799 7.42966 14.9932 7.07767C15.6065 6.72568 16.0758 6.16835 16.3182 5.50405C16.5606 4.83975 16.5605 4.11118 16.318 3.44692C16.0755 2.78267 15.6061 2.22543 14.9927 1.87355C14.3794 1.52166 13.6614 1.39776 12.9656 1.52371C12.2697 1.64966 11.6408 2.01736 11.1897 2.56191C10.7385 3.10647 10.4943 3.79288 10.5 4.49999C10.5023 4.67867 10.5198 4.85682 10.5525 5.03249L6.59251 6.85499C6.17032 6.44218 5.63569 6.16313 5.05561 6.05282C4.47553 5.9425 3.8758 6.00582 3.33154 6.23484C2.78729 6.46387 2.32273 6.84841 1.99606 7.34029C1.66938 7.83217 1.49513 8.40952 1.49513 8.99999C1.49513 9.59047 1.66938 10.1678 1.99606 10.6597C2.32273 11.1516 2.78729 11.5361 3.33154 11.7651C3.8758 11.9942 4.47553 12.0575 5.05561 11.9472C5.63569 11.8369 6.17032 11.5578 6.59251 11.145L10.5525 12.9675C10.5198 13.1432 10.5023 13.3213 10.5 13.5C10.5 14.0933 10.676 14.6734 11.0056 15.1667C11.3352 15.6601 11.8038 16.0446 12.352 16.2716C12.9001 16.4987 13.5033 16.5581 14.0853 16.4424C14.6672 16.3266 15.2018 16.0409 15.6213 15.6213C16.0409 15.2018 16.3266 14.6672 16.4424 14.0853C16.5581 13.5033 16.4987 12.9001 16.2716 12.3519C16.0446 11.8038 15.6601 11.3352 15.1667 11.0056C14.6734 10.6759 14.0934 10.5 13.5 10.5ZM13.5 2.99999C13.7967 2.99999 14.0867 3.08797 14.3334 3.25279C14.58 3.41761 14.7723 3.65188 14.8858 3.92597C14.9994 4.20006 15.0291 4.50166 14.9712 4.79263C14.9133 5.0836 14.7704 5.35088 14.5607 5.56065C14.3509 5.77043 14.0836 5.91329 13.7926 5.97117C13.5017 6.02905 13.2001 5.99935 12.926 5.88581C12.6519 5.77228 12.4176 5.58002 12.2528 5.33335C12.088 5.08668 12 4.79667 12 4.49999C12 4.10217 12.158 3.72064 12.4393 3.43933C12.7207 3.15803 13.1022 2.99999 13.5 2.99999V2.99999ZM4.50001 10.5C4.20333 10.5 3.91332 10.412 3.66665 10.2472C3.41998 10.0824 3.22772 9.84811 3.11419 9.57402C3.00065 9.29993 2.97095 8.99833 3.02883 8.70736C3.08671 8.41639 3.22957 8.14911 3.43935 7.93933C3.64912 7.72956 3.9164 7.58669 4.20737 7.52882C4.49834 7.47094 4.79994 7.50064 5.07403 7.61417C5.34812 7.72771 5.58239 7.91997 5.74721 8.16664C5.91203 8.41331 6.00001 8.70332 6.00001 8.99999C6.00001 9.39782 5.84197 9.77935 5.56067 10.0607C5.27936 10.342 4.89783 10.5 4.50001 10.5ZM13.5 15C13.2033 15 12.9133 14.912 12.6667 14.7472C12.42 14.5824 12.2277 14.3481 12.1142 14.074C12.0007 13.7999 11.971 13.4983 12.0288 13.2074C12.0867 12.9164 12.2296 12.6491 12.4393 12.4393C12.6491 12.2296 12.9164 12.0867 13.2074 12.0288C13.4983 11.9709 13.7999 12.0006 14.074 12.1142C14.3481 12.2277 14.5824 12.42 14.7472 12.6666C14.912 12.9133 15 13.2033 15 13.5C15 13.8978 14.842 14.2793 14.5607 14.5607C14.2794 14.842 13.8978 15 13.5 15Z" fill="white"/>
</svg>
