<svg width="14" height="14" viewBox="0 0 14 14" fill="none" xmlns="http://www.w3.org/2000/svg">
<path d="M4.08333 9.33335C4.3154 9.33335 4.53796 9.24117 4.70205 9.07707C4.86615 8.91298 4.95833 8.69042 4.95833 8.45835C4.96118 8.42926 4.96118 8.39995 4.95833 8.37085L6.58583 6.74335H6.72H6.85417L7.79333 7.68252C7.79333 7.68252 7.79333 7.71169 7.79333 7.72919C7.79333 7.96125 7.88552 8.18381 8.04962 8.34791C8.21371 8.512 8.43627 8.60419 8.66833 8.60419C8.9004 8.60419 9.12296 8.512 9.28705 8.34791C9.45115 8.18381 9.54333 7.96125 9.54333 7.72919V7.68252L11.6667 5.54169C11.8397 5.54169 12.0089 5.49037 12.1528 5.39422C12.2967 5.29808 12.4088 5.16142 12.4751 5.00153C12.5413 4.84165 12.5586 4.66572 12.5249 4.49598C12.4911 4.32625 12.4078 4.17034 12.2854 4.04797C12.163 3.9256 12.0071 3.84226 11.8374 3.8085C11.6676 3.77474 11.4917 3.79207 11.3318 3.85829C11.1719 3.92452 11.0353 4.03667 10.9391 4.18056C10.843 4.32446 10.7917 4.49363 10.7917 4.66669C10.7888 4.69578 10.7888 4.72509 10.7917 4.75419L8.68583 6.86002H8.5925L7.58333 5.83335C7.58333 5.60129 7.49115 5.37873 7.32705 5.21463C7.16296 5.05054 6.9404 4.95835 6.70833 4.95835C6.47627 4.95835 6.25371 5.05054 6.08962 5.21463C5.92552 5.37873 5.83333 5.60129 5.83333 5.83335L4.08333 7.58335C3.85127 7.58335 3.62871 7.67554 3.46461 7.83963C3.30052 8.00373 3.20833 8.22629 3.20833 8.45835C3.20833 8.69042 3.30052 8.91298 3.46461 9.07707C3.62871 9.24117 3.85127 9.33335 4.08333 9.33335V9.33335ZM11.9583 11.6667H2.04167V1.75002C2.04167 1.59531 1.98021 1.44694 1.87081 1.33754C1.76142 1.22815 1.61304 1.16669 1.45833 1.16669C1.30362 1.16669 1.15525 1.22815 1.04585 1.33754C0.936458 1.44694 0.875 1.59531 0.875 1.75002V12.25C0.875 12.4047 0.936458 12.5531 1.04585 12.6625C1.15525 12.7719 1.30362 12.8334 1.45833 12.8334H11.9583C12.113 12.8334 12.2614 12.7719 12.3708 12.6625C12.4802 12.5531 12.5417 12.4047 12.5417 12.25C12.5417 12.0953 12.4802 11.9469 12.3708 11.8375C12.2614 11.7281 12.113 11.6667 11.9583 11.6667Z" fill="white"/>
</svg>
