<svg width="19" height="18" viewBox="0 0 19 18" fill="none" xmlns="http://www.w3.org/2000/svg">
<path d="M16.8333 8.205C16.8255 8.1361 16.8104 8.06822 16.7883 8.0025V7.935C16.7523 7.85788 16.7042 7.787 16.6458 7.725V7.725L12.1458 3.225C12.0838 3.16666 12.013 3.11856 11.9358 3.0825H11.8608C11.7879 3.0435 11.7095 3.01569 11.6283 3H4.08334C3.48661 3 2.91431 3.23705 2.49235 3.65901C2.0704 4.08097 1.83334 4.65326 1.83334 5.25V12.75C1.83334 13.3467 2.0704 13.919 2.49235 14.341C2.91431 14.7629 3.48661 15 4.08334 15H14.5833C15.1801 15 15.7524 14.7629 16.1743 14.341C16.5963 13.919 16.8333 13.3467 16.8333 12.75V8.25C16.8333 8.25 16.8333 8.25 16.8333 8.205ZM12.3333 5.5575L14.2758 7.5H13.0833C12.8844 7.5 12.6937 7.42098 12.553 7.28033C12.4124 7.13968 12.3333 6.94891 12.3333 6.75V5.5575ZM15.3333 12.75C15.3333 12.9489 15.2543 13.1397 15.1137 13.2803C14.973 13.421 14.7823 13.5 14.5833 13.5H4.08334C3.88443 13.5 3.69367 13.421 3.55301 13.2803C3.41236 13.1397 3.33334 12.9489 3.33334 12.75V5.25C3.33334 5.05109 3.41236 4.86032 3.55301 4.71967C3.69367 4.57902 3.88443 4.5 4.08334 4.5H10.8333V6.75C10.8333 7.34674 11.0704 7.91903 11.4924 8.34099C11.9143 8.76295 12.4866 9 13.0833 9H15.3333V12.75ZM5.58334 9H8.58334C8.78226 9 8.97302 8.92098 9.11367 8.78033C9.25433 8.63968 9.33334 8.44891 9.33334 8.25C9.33334 8.05109 9.25433 7.86032 9.11367 7.71967C8.97302 7.57902 8.78226 7.5 8.58334 7.5H5.58334C5.38443 7.5 5.19367 7.57902 5.05301 7.71967C4.91236 7.86032 4.83334 8.05109 4.83334 8.25C4.83334 8.44891 4.91236 8.63968 5.05301 8.78033C5.19367 8.92098 5.38443 9 5.58334 9ZM5.58334 10.5C5.38443 10.5 5.19367 10.579 5.05301 10.7197C4.91236 10.8603 4.83334 11.0511 4.83334 11.25C4.83334 11.4489 4.91236 11.6397 5.05301 11.7803C5.19367 11.921 5.38443 12 5.58334 12H13.0833C13.2823 12 13.473 11.921 13.6137 11.7803C13.7543 11.6397 13.8333 11.4489 13.8333 11.25C13.8333 11.0511 13.7543 10.8603 13.6137 10.7197C13.473 10.579 13.2823 10.5 13.0833 10.5H5.58334Z" fill="white"/>
</svg>
