<svg width="20" height="20" viewBox="0 0 20 20" fill="none" xmlns="http://www.w3.org/2000/svg">
<path d="M15.0667 10.3499L9.91672 15.5082C9.24156 16.1082 8.36267 16.4276 7.45982 16.401C6.55697 16.3744 5.69838 16.0039 5.0597 15.3652C4.42101 14.7265 4.05048 13.8679 4.0239 12.9651C3.99732 12.0622 4.3167 11.1833 4.91672 10.5082L11.5834 3.84152C11.9814 3.46343 12.5094 3.25263 13.0584 3.25263C13.6074 3.25263 14.1354 3.46343 14.5334 3.84152C14.9212 4.23451 15.1386 4.76441 15.1386 5.31652C15.1386 5.86863 14.9212 6.39853 14.5334 6.79152L8.78338 12.5332C8.72648 12.5945 8.65806 12.6439 8.58203 12.6788C8.506 12.7136 8.42386 12.7332 8.34029 12.7362C8.25672 12.7393 8.17335 12.7259 8.09496 12.6968C8.01656 12.6677 7.94467 12.6234 7.88338 12.5665C7.8221 12.5096 7.77263 12.4412 7.73778 12.3652C7.70294 12.2891 7.68342 12.207 7.68032 12.1234C7.67723 12.0398 7.69062 11.9565 7.71974 11.8781C7.74887 11.7997 7.79314 11.7278 7.85005 11.6665L12.1251 7.39985C12.282 7.24293 12.3701 7.0301 12.3701 6.80818C12.3701 6.58627 12.282 6.37344 12.1251 6.21652C11.9681 6.0596 11.7553 5.97144 11.5334 5.97144C11.3115 5.97144 11.0986 6.0596 10.9417 6.21652L6.66672 10.4999C6.45281 10.7121 6.28302 10.9646 6.16716 11.2428C6.0513 11.521 5.99165 11.8193 5.99165 12.1207C5.99165 12.422 6.0513 12.7204 6.16716 12.9986C6.28302 13.2768 6.45281 13.5293 6.66672 13.7415C7.10369 14.1578 7.68406 14.3899 8.28755 14.3899C8.89104 14.3899 9.47141 14.1578 9.90838 13.7415L15.6501 7.99152C16.3125 7.28064 16.6731 6.34041 16.6559 5.36891C16.6388 4.3974 16.2452 3.47047 15.5582 2.78341C14.8711 2.09634 13.9442 1.70278 12.9727 1.68564C12.0012 1.6685 11.0609 2.02912 10.3501 2.69152L3.68339 9.35818C2.78438 10.3539 2.30424 11.6581 2.343 12.999C2.38175 14.3399 2.93641 15.6142 3.89142 16.5563C4.84642 17.4984 6.12812 18.0357 7.46945 18.0563C8.81079 18.0768 10.1083 17.579 11.0917 16.6665L16.25 11.5165C16.3277 11.4388 16.3894 11.3466 16.4314 11.2451C16.4735 11.1435 16.4951 11.0347 16.4951 10.9249C16.4951 10.815 16.4735 10.7062 16.4314 10.6046C16.3894 10.5031 16.3277 10.4109 16.25 10.3332C16.1724 10.2555 16.0801 10.1939 15.9786 10.1518C15.8771 10.1098 15.7683 10.0881 15.6584 10.0881C15.5485 10.0881 15.4397 10.1098 15.3382 10.1518C15.2367 10.1939 15.1444 10.2555 15.0667 10.3332V10.3499Z" fill="white"/>
</svg>
