<svg width="54" height="12" viewBox="0 0 54 12" fill="none" xmlns="http://www.w3.org/2000/svg">
<path d="M27.0578 3C24.9589 3 23.4455 4.35 23.4455 6.375C23.4455 8.4 25.1471 9.75 27.248 9.75C28.516 9.75 29.6339 9.255 30.3259 8.42063L28.8715 7.59187C28.4875 8.00626 27.9038 8.24813 27.248 8.24813C26.3372 8.24813 25.5635 7.77937 25.2763 7.02937H30.6036C30.6453 6.81937 30.6701 6.60187 30.6701 6.37313C30.6701 4.35 29.1587 3 27.0578 3ZM25.2611 5.71874C25.4988 4.97063 26.149 4.5 27.0578 4.5C27.9684 4.5 28.6187 4.97063 28.8545 5.71874H25.2611ZM24.8315 0.9375L19.5633 9.9375L14.2932 0.9375H16.2685L19.5614 6.5625L22.8542 0.9375H24.8315ZM7.02491 0L14.0499 12H0L7.02491 0ZM38.3129 6.375C38.3129 7.5 39.0581 8.25 40.2141 8.25C40.9974 8.25 41.5849 7.89937 41.8871 7.3275L43.3472 8.15813C42.7426 9.15187 41.6096 9.75 40.2141 9.75C38.1132 9.75 36.6018 8.4 36.6018 6.375C36.6018 4.35 38.1151 3 40.2141 3C41.6096 3 42.7408 3.59813 43.3472 4.59187L41.8871 5.4225C41.5849 4.85063 40.9974 4.5 40.2141 4.5C39.0601 4.5 38.3129 5.25 38.3129 6.375ZM53.9939 0.9375V9.5625H52.2829V0.9375H53.9939ZM47.5299 3C45.4309 3 43.9176 4.35 43.9176 6.375C43.9176 8.4 45.6211 9.75 47.72 9.75C48.988 9.75 50.106 9.255 50.798 8.42063L49.3436 7.59187C48.9595 8.00626 48.3759 8.24813 47.72 8.24813C46.8093 8.24813 46.0355 7.77937 45.7484 7.02937H51.0756C51.1174 6.81937 51.1421 6.60187 51.1421 6.37313C51.1421 4.35 49.6307 3 47.5299 3ZM45.7332 5.71874C45.9709 4.97063 46.6192 4.5 47.5299 4.5C48.4405 4.5 49.0907 4.97063 49.3265 5.71874H45.7332ZM36.0314 3.1875V5.00437C35.8414 4.95 35.6398 4.9125 35.423 4.9125C34.3185 4.9125 33.5219 5.6625 33.5219 6.7875V9.5625H31.8108V3.1875H33.5219V4.9125C33.5219 3.96 34.6454 3.1875 36.0314 3.1875Z" fill="#454B6B"/>
</svg>
