<svg width="18" height="18" viewBox="0 0 18 18" fill="none" xmlns="http://www.w3.org/2000/svg">
<path d="M11.25 12H6.75C6.55109 12 6.36032 12.079 6.21967 12.2197C6.07902 12.3603 6 12.5511 6 12.75C6 12.9489 6.07902 13.1397 6.21967 13.2803C6.36032 13.421 6.55109 13.5 6.75 13.5H11.25C11.4489 13.5 11.6397 13.421 11.7803 13.2803C11.921 13.1397 12 12.9489 12 12.75C12 12.5511 11.921 12.3603 11.7803 12.2197C11.6397 12.079 11.4489 12 11.25 12ZM6.75 7.5H7.5C7.69891 7.5 7.88968 7.42098 8.03033 7.28033C8.17098 7.13968 8.25 6.94891 8.25 6.75C8.25 6.55109 8.17098 6.36032 8.03033 6.21967C7.88968 6.07902 7.69891 6 7.5 6H6.75C6.55109 6 6.36032 6.07902 6.21967 6.21967C6.07902 6.36032 6 6.55109 6 6.75C6 6.94891 6.07902 7.13968 6.21967 7.28033C6.36032 7.42098 6.55109 7.5 6.75 7.5V7.5ZM11.25 9H6.75C6.55109 9 6.36032 9.07902 6.21967 9.21967C6.07902 9.36032 6 9.55109 6 9.75C6 9.94891 6.07902 10.1397 6.21967 10.2803C6.36032 10.421 6.55109 10.5 6.75 10.5H11.25C11.4489 10.5 11.6397 10.421 11.7803 10.2803C11.921 10.1397 12 9.94891 12 9.75C12 9.55109 11.921 9.36032 11.7803 9.21967C11.6397 9.07902 11.4489 9 11.25 9ZM14.7825 11.4675C14.7112 11.3992 14.6271 11.3457 14.535 11.31C14.4455 11.2694 14.3483 11.2484 14.25 11.2484C14.1517 11.2484 14.0545 11.2694 13.965 11.31C13.8729 11.3457 13.7888 11.3992 13.7175 11.4675C13.6513 11.5404 13.598 11.6241 13.56 11.715C13.5026 11.8516 13.4869 12.0021 13.5149 12.1476C13.5429 12.2931 13.6134 12.427 13.7175 12.5325C13.7876 12.602 13.8707 12.657 13.9621 12.6943C14.0534 12.7317 14.1513 12.7506 14.25 12.75C14.348 12.7488 14.4448 12.7284 14.535 12.69C14.6259 12.652 14.7096 12.5987 14.7825 12.5325C14.8866 12.427 14.9571 12.2931 14.9851 12.1476C15.0131 12.0021 14.9974 11.8516 14.94 11.715C14.902 11.6241 14.8487 11.5404 14.7825 11.4675V11.4675ZM15 6.705C14.9922 6.6361 14.9771 6.56822 14.955 6.5025V6.435C14.9189 6.35788 14.8708 6.287 14.8125 6.225V6.225L10.3125 1.725C10.2505 1.66666 10.1796 1.61856 10.1025 1.5825C10.0801 1.57932 10.0574 1.57932 10.035 1.5825C9.95881 1.53881 9.87467 1.51076 9.7875 1.5H5.25C4.65326 1.5 4.08097 1.73705 3.65901 2.15901C3.23705 2.58097 3 3.15326 3 3.75V14.25C3 14.8467 3.23705 15.419 3.65901 15.841C4.08097 16.2629 4.65326 16.5 5.25 16.5H11.25C11.4489 16.5 11.6397 16.421 11.7803 16.2803C11.921 16.1397 12 15.9489 12 15.75C12 15.5511 11.921 15.3603 11.7803 15.2197C11.6397 15.079 11.4489 15 11.25 15H5.25C5.05109 15 4.86032 14.921 4.71967 14.7803C4.57902 14.6397 4.5 14.4489 4.5 14.25V3.75C4.5 3.55109 4.57902 3.36032 4.71967 3.21967C4.86032 3.07902 5.05109 3 5.25 3H9V5.25C9 5.84674 9.23705 6.41903 9.65901 6.84099C10.081 7.26295 10.6533 7.5 11.25 7.5H13.5V9C13.5 9.19891 13.579 9.38968 13.7197 9.53033C13.8603 9.67098 14.0511 9.75 14.25 9.75C14.4489 9.75 14.6397 9.67098 14.7803 9.53033C14.921 9.38968 15 9.19891 15 9V6.75C15 6.75 15 6.75 15 6.705ZM11.25 6C11.0511 6 10.8603 5.92098 10.7197 5.78033C10.579 5.63968 10.5 5.44891 10.5 5.25V4.0575L12.4425 6H11.25ZM14.25 13.5C14.0511 13.5 13.8603 13.579 13.7197 13.7197C13.579 13.8603 13.5 14.0511 13.5 14.25V15.75C13.5 15.9489 13.579 16.1397 13.7197 16.2803C13.8603 16.421 14.0511 16.5 14.25 16.5C14.4489 16.5 14.6397 16.421 14.7803 16.2803C14.921 16.1397 15 15.9489 15 15.75V14.25C15 14.0511 14.921 13.8603 14.7803 13.7197C14.6397 13.579 14.4489 13.5 14.25 13.5Z" fill="white"/>
</svg>
